<?xml version="1.0" standalone="no"?>
<!DOCTYPE svg PUBLIC "-//W3C//DTD SVG 1.1//EN" "http://www.w3.org/Graphics/SVG/1.1/DTD/svg11.dtd" >
<svg xmlns="http://www.w3.org/2000/svg">
<metadata>Generated by IcoMoon</metadata>
<defs>
<font id="icomoon" horiz-adv-x="1024">
<font-face units-per-em="1024" ascent="960" descent="-64" />
<missing-glyph horiz-adv-x="1024" />
<glyph unicode="&#x20;" horiz-adv-x="512" d="" />
<glyph unicode="&#xe900;" horiz-adv-x="1045" d="M181.333 960h682.667c94.257 0 170.667-76.41 170.667-170.667v-682.667c0-94.257-76.41-170.667-170.667-170.667h-682.667c-94.257 0-170.667 76.41-170.667 170.667v682.667c0 94.257 76.41 170.667 170.667 170.667z" />
<glyph unicode="&#xe901;" horiz-adv-x="1045" d="M780.028 514.24l-6.97 6.912c4.508 9.291 6.054 19.725 4.431 29.909-1.621 10.187-6.336 19.639-13.513 27.1-4.896 4.832-10.775 8.574-17.246 10.974s-13.382 3.405-20.275 2.944c-6.477-0.375-12.836-1.875-18.793-4.431v73.685c0 0-0.369 42.667-46.33 42.667s-320 0-362.667 0c-42.667 0-42.667-42.667-42.667-42.667v-426.667c0 0 0-42.667 42.667-42.667s316.706 0 362.667 0c45.961 0 46.33 42.667 46.33 42.667v216.213l49.845 49.44 4.258-4.209c0.557-0.55 0.998-1.205 1.299-1.926 0.301-0.719 0.457-1.493 0.457-2.272 0-0.781-0.156-1.553-0.457-2.274s-0.742-1.376-1.299-1.926l-37.956-37.664c-2.421-2.4-3.782-5.655-3.782-9.050-0.002-3.396 1.357-6.652 3.776-9.054s5.7-3.753 9.124-3.755c3.422 0 6.705 1.346 9.126 3.746l37.973 37.664c5.958 5.924 9.306 13.952 9.306 22.321 0 8.367-3.347 16.395-9.306 22.319zM352.785 604.8h258.127v-25.6h-258.127v25.6zM352.785 540.8h258.127v-25.6h-258.127v25.6zM352.785 476.8h169.374v-25.6h-169.374v25.6zM591.392 257.664h-125.884c-14.551 0-28.164 1.359-35.392 13.184-7.405 12.079-0.049 26.112 5.323 36.384 0.951 1.807-1.161 4.047-3.58 1.568-7.098-7.232-18.389-20.256-27.471-30.72-9.598-11.072-13.406-15.409-15.437-17.233-2.15-2.477-5.071-4.173-8.303-4.823-3.23-0.649-6.586-0.211-9.538 1.239-2.652 1.519-4.73 3.857-5.914 6.656-1.186 2.801-1.414 5.907-0.653 8.849 0.678 4 12.196 48.512 22.633 88.527-13.873-24.431-57.909-97.598-59.974-101.039-1.536-2.551-4.032-4.395-6.938-5.122s-5.984-0.282-8.557 1.242c-2.573 1.523-4.431 3.998-5.165 6.88s-0.282 5.937 1.252 8.489c0.565 0.911 55.733 92.608 62.686 105.92 2.266 5.321 6.485 9.591 11.802 11.947s11.339 2.62 16.847 0.74c4.971-2.003 8.992-5.803 11.251-10.63s2.592-10.325 0.928-15.386c-5.809-22.206-11.729-44.992-16.292-62.718 7.371 8.448 15.081 17.118 20.646 22.799 4.284 5.107 10.135 8.681 16.661 10.176 6.526 1.493 13.365 0.826 19.473-1.905 3.793-1.916 6.833-5.035 8.634-8.862s2.259-8.141 1.301-12.258c-1.54-5.097-3.639-10.012-6.257-14.656-4.307-8.879-2.259-16.832 10.033-16.832h125.869c2.995 0 5.867-1.18 7.983-3.279 2.118-2.101 3.309-4.949 3.309-7.919 0-2.972-1.19-5.82-3.309-7.921-2.116-2.099-4.988-3.279-7.983-3.279l0.015-0.017zM557.824 338.464l-42.005-10.991c-0.61-0.173-1.257-0.177-1.871-0.015-0.612 0.164-1.171 0.489-1.613 0.941-0.463 0.435-0.798 0.988-0.964 1.596-0.169 0.61-0.164 1.254 0.013 1.86l10.711 41.585 106.302 105.44 35.488-35.2-106.061-105.216zM742.78 521.935l-60.651-60.158-35.488 35.198 60.653 60.162c5.423 5.532 12.723 8.87 20.484 9.374l1.453 0.049c3.046 0.053 6.071-0.495 8.902-1.613s5.408-2.782 7.584-4.898c4.661-5.459 6.967-12.521 6.419-19.654-0.55-7.134-3.913-13.766-9.357-18.46z" />
<glyph unicode="&#xe902;" glyph-name="calendar" d="M302.080 886.72c-12.353-3.581-22.17-12.349-27.095-23.728l-0.105-0.272c-3.008-6.72-3.456-11.2-3.456-35.264l-0.064-27.52-42.24-0.832c-47.424-0.832-54.272-2.048-78.912-13.44-28.48-13.184-52.16-35.84-64.896-62.016-13.888-28.48-12.8-1.024-12.8-320 0-264.832 0.192-284.928 3.008-294.912 12.736-46.144 46.848-80 96.064-95.424l15.296-4.8h650.24l15.296 4.8c49.216 15.424 83.328 49.28 96.064 95.424 2.816 9.984 3.008 30.080 3.008 294.912 0 269.312-0.192 284.736-3.136 295.232-11.273 38.919-38.388 70.032-73.72 86.434l-0.84 0.35c-24.64 11.392-31.488 12.608-78.912 13.44l-42.24 0.832-0.064 27.52c0 24.064-0.448 28.544-3.456 35.264-6.24 14.964-20.751 25.291-37.673 25.291-11.583 0-22.036-4.838-29.448-12.603l-0.015-0.016c-11.072-11.008-12.992-18.368-12.992-49.664v-26.176h-313.984v26.176c0 31.296-1.92 38.656-12.928 49.664-7.51 7.795-18.038 12.636-29.698 12.636-3.661 0-7.211-0.477-10.59-1.373l0.288 0.065zM824.64 714.048c17.024-3.648 32.384-14.464 39.424-27.84 3.2-6.144 3.712-10.368 4.288-35.52l0.704-28.608h-714.112l0.704 28.608c0.576 25.152 1.088 29.376 4.288 35.52 8.089 13.642 21.232 23.565 36.789 27.249l0.395 0.079c11.776 2.944 613.952 3.392 627.52 0.512zM868.672 337.984c0-136.896-0.576-203.136-1.792-209.024-3.648-16.832-22.848-32.32-44.288-35.84-15.36-2.496-605.824-2.496-621.184 0-21.44 3.52-40.64 19.008-44.288 35.84-1.216 5.888-1.792 72.128-1.792 209.024v200.448h713.344v-200.448z" />
<glyph unicode="&#xe903;" glyph-name="send" horiz-adv-x="964" d="M812.574 701.549c17.348 47.988-29.154 94.489-77.143 77.101l-586.489-212.108c-48.148-17.428-53.971-83.125-9.677-108.785l187.211-108.386 167.173 167.176c7.574 7.315 17.718 11.363 28.247 11.271s20.6-4.315 28.046-11.76c7.445-7.446 11.668-17.517 11.76-28.046s-3.956-20.673-11.271-28.247l-167.173-167.172 108.424-187.211c25.62-44.297 91.317-38.43 108.745 9.674l212.148 586.494z" />
<glyph unicode="&#xe904;" glyph-name="apple" d="M791.616 418.874c-0.442 83.901 36.253 147.226 110.522 193.862-41.555 61.498-104.33 95.332-187.222 101.962-78.47 6.401-164.234-47.323-195.622-47.323-33.155 0-109.194 45.037-168.874 45.037-123.342-2.058-254.419-101.734-254.419-304.511 0-59.898 10.61-121.776 31.83-185.635 28.293-83.901 130.414-289.651 236.957-286.224 55.702 1.373 95.046 40.922 167.549 40.922 70.291 0 106.762-40.922 168.877-40.922 107.424 1.6 199.821 188.608 226.787 272.736-144.118 70.186-136.384 205.75-136.384 210.096zM666.509 794.256c60.342 74.070 54.816 141.511 53.050 165.744-53.27-3.201-114.941-37.492-150.086-79.786-38.685-45.265-61.45-101.276-56.589-164.373 57.693-4.572 110.301 26.062 153.626 78.414z" />
<glyph unicode="&#xe905;" glyph-name="phone" d="M977.402 219.41v-182.872c0.007-13.098-4.954-25.702-13.88-35.281s-21.153-15.416-34.214-16.328c-22.6-1.555-41.061-2.383-55.334-2.383-457 0-827.429 370.45-827.429 827.475 0 14.274 0.776 32.737 2.379 55.337 0.917 13.062 6.753 25.289 16.332 34.216s22.186 13.887 35.279 13.881h182.861c6.415 0.007 12.603-2.372 17.362-6.673s7.75-10.217 8.391-16.6c1.19-11.895 2.276-21.359 3.31-28.548 10.277-71.727 31.339-141.489 62.471-206.92 4.913-10.344 1.706-22.704-7.602-29.324l-111.599-79.748c68.235-159.002 194.939-285.714 353.933-353.952l79.64 111.398c3.254 4.551 8.004 7.816 13.419 9.224s11.153 0.87 16.213-1.518c65.419-31.077 135.159-52.088 206.857-62.319 7.188-1.034 16.652-2.121 28.443-3.31 6.373-0.653 12.277-3.65 16.566-8.408s6.609-10.94 6.601-17.347z" />
<glyph unicode="&#xe906;" glyph-name="route" d="M215.040 632.32c-118.18 0-215.040-96.563-215.040-214.426 0-45.67 14.582-88.115 39.27-123.002l149.535-258.5c20.941-27.361 34.867-22.17 52.285 1.434l164.925 280.678c3.328 6.042 5.939 12.453 8.223 19.007 10.465 25.506 15.846 52.813 15.841 80.384 0 117.862-96.831 214.426-215.040 214.426zM215.040 531.846c63.652 0 114.278-50.495 114.278-113.963 0-63.465-50.627-113.94-114.278-113.94-63.642 0-114.278 50.483-114.278 113.94 0 63.468 50.637 113.963 114.278 113.963zM898.56 960c-68.935 0-125.44-56.33-125.44-125.092 0-26.634 8.499-51.395 22.906-71.741l87.236-150.795c12.214-15.954 20.335-12.922 30.492 0.839l96.205 163.739c1.946 3.512 3.473 7.25 4.793 11.080 6.107 14.874 9.25 30.799 9.247 46.879 0 68.772-56.485 125.092-125.44 125.092zM898.56 901.386c37.131 0 66.662-29.45 66.662-66.478 0-37.018-29.531-66.458-66.662-66.458-37.12 0-66.662 29.44-66.662 66.458 0 37.028 29.542 66.478 66.662 66.478zM903.259 576.902c-23.009-0.512-46.080-1.485-69.191-3.194l3.564-56.65c22.201 1.61 44.439 2.642 66.694 3.103l-1.067 56.741zM780.635 568.505c-35.533-4.415-71.373-10.701-106.803-20.807l13.343-54.898c32.196 9.176 65.556 15.104 99.442 19.314l-5.982 56.391zM620.78 528.691c-10.615-4.685-20.895-10.103-30.763-16.21l-0.040-0.051-0.063-0.020c-14.080-8.869-28.917-20.122-41.031-36.474-8.775-11.847-15.954-26.829-17.633-44.544l52.173-5.786c0.39 4.156 2.52 9.646 6.349 14.805h0.020v0.023c6.175 8.354 15.431 15.943 26.439 22.886l0.043 0.020c7.845 4.841 16.017 9.139 24.454 12.86l-19.948 52.491zM593.92 400.333l-33.823-43.366c8.018-7.333 16.427-12.965 24.545-17.675l0.102-0.051 0.102-0.060c26.954-15.329 54.744-23.982 80.509-32.196l14.805 54.457c-25.754 8.212-50.031 16.139-70.841 27.955-5.959 3.462-11.182 7.077-15.4 10.937zM730.47 346.123l-14.458-54.551 6.841-2.128 8.397-2.685c27.79-9.040 54.414-18.697 78.211-32.060l24.146 50.381c-28.774 16.168-58.644 26.735-87.43 36.096l-0.080 0.020-8.624 2.753-7.003 2.173zM882.708 267.275l-37.1-40.141c8.767-9.495 15.332-20.912 18.526-32.708l0.020-0.060 0.020-0.094c3.809-13.773 3.82-29.972 0.839-46.336l51.447-10.977c4.198 23.103 4.873 48.466-2.028 73.503-6.010 22.138-17.479 41.37-31.724 56.812zM847.053 113.735c-5.669-5.988-11.935-11.381-18.699-16.097h-0.020c-18.432-12.965-39.814-22.733-62.524-31.13l16.936-53.697c24.843 9.185 50.35 20.449 74.189 37.222l0.063 0.051 0.028 0.020c9.791 6.855 18.847 14.703 27.025 23.418l-36.998 40.212zM717.619 51.385c-32.902-8.849-66.529-15.585-100.568-21.299l8.030-56.107c35.029 5.888 70.204 12.925 105.165 22.323l-12.626 55.083zM565.842 22.343c-34.264-4.679-68.71-8.499-103.262-11.756l4.528-56.545c35.081 3.297 70.224 7.179 105.318 11.981l-6.585 56.32zM410.655 6.133c-34.623-2.742-69.325-4.975-104.058-6.861l2.62-56.687c35.072 1.894 70.175 4.156 105.267 6.943l-3.829 56.604zM254.403-3.288c-20.818-0.973-41.687-1.769-62.607-2.509l1.72-56.738c21.051 0.722 42.098 1.562 63.14 2.517l-2.253 56.73z" />
<glyph unicode="&#xe907;" glyph-name="search" d="M760.338 271.721c63.572 81.992 93.533 185.133 83.787 288.439s-58.47 199.020-136.252 267.666c-77.782 68.646-178.786 105.069-282.461 101.86s-202.234-45.811-275.626-119.137c-73.456-73.377-116.179-172.013-119.464-275.808s33.117-204.938 101.785-282.814c68.669-77.878 164.438-126.633 267.79-136.325 103.352-9.698 206.509 20.402 288.453 84.155l2.193-2.295 216.263-216.401c4.734-4.734 10.36-8.493 16.547-11.059s12.824-3.885 19.522-3.885c6.698 0 13.33 1.319 19.516 3.885 6.192 2.566 11.812 6.325 16.553 11.059 4.734 4.741 8.493 10.366 11.053 16.559 2.566 6.192 3.885 12.824 3.885 19.528 0 6.698-1.319 13.336-3.885 19.528-2.56 6.192-6.319 11.812-11.053 16.553l-216.317 216.347c-0.741 0.735-1.506 1.452-2.289 2.144zM654.499 738.384c28.786-28.33 51.676-62.082 67.355-99.307s23.841-77.188 24.004-117.583c0.163-40.395-7.668-80.423-23.046-117.774s-37.99-71.288-66.542-99.85c-28.558-28.564-62.478-51.194-99.815-66.572-37.337-15.384-77.349-23.221-117.727-23.052-40.379 0.163-80.326 8.325-117.536 24.010s-70.948 38.587-99.267 67.379c-56.593 57.548-88.164 135.134-87.835 215.86s32.529 158.052 89.589 215.135c57.060 57.083 134.355 89.296 215.049 89.625s158.249-31.255 215.771-87.87z" />
<glyph unicode="&#xe908;" glyph-name="star" d="M465.507 859.204c18.3 39.673 74.683 39.673 92.987 0l100.403-217.673c7.455-16.169 22.779-27.302 40.463-29.399l238.044-28.224c43.387-5.144 60.81-58.77 28.733-88.434l-175.995-162.756c-13.071-12.088-18.924-30.1-15.452-47.565l46.715-235.121c8.515-42.849-37.1-75.991-75.223-54.651l-209.178 117.084c-15.534 8.699-34.477 8.699-50.014 0l-209.173-117.084c-38.124-21.34-83.741 11.802-75.227 54.651l46.717 235.121c3.47 17.464-2.383 35.476-15.456 47.565l-175.993 162.756c-32.077 29.664-14.653 83.29 28.734 88.434l238.046 28.224c17.682 2.097 33.006 13.23 40.464 29.399l100.403 217.673z" />
<glyph unicode="&#xe909;" glyph-name="start" d="M512.002-7.11c-251.351 0-455.111 203.757-455.111 455.108s203.76 455.111 455.111 455.111c251.352 0 455.108-203.76 455.108-455.111s-203.757-455.108-455.108-455.108zM512.002 296.294c83.784 0 151.704 67.92 151.704 151.704s-67.92 151.704-151.704 151.704c-83.784 0-151.704-67.92-151.704-151.704s67.92-151.704 151.704-151.704z" />
<glyph unicode="&#xe90a;" d="M512 942.345c273.019 0 494.345-221.326 494.345-494.345s-221.326-494.345-494.345-494.345c-273.019 0-494.345 221.326-494.345 494.345s221.326 494.345 494.345 494.345z" />
<glyph unicode="&#xe90b;" d="M353.778 292.352c-3.038 2.934-5.461 6.441-7.127 10.321s-2.544 8.051-2.58 12.274c-0.036 4.223 0.768 8.411 2.367 12.32 1.599 3.905 3.96 7.458 6.946 10.441 2.987 2.987 6.536 5.35 10.445 6.946 3.909 1.6 8.097 2.405 12.316 2.369 4.223-0.039 8.397-0.915 12.274-2.581 3.881-1.667 7.39-4.089 10.325-7.126 22.235-22.242 50.568-37.39 81.415-43.527 30.844-6.137 62.817-2.991 91.874 9.047s53.891 32.422 71.362 58.573c17.468 26.151 26.79 56.899 26.783 88.35 0 8.432 3.351 16.522 9.315 22.482 5.964 5.964 14.054 9.315 22.486 9.315s16.522-3.351 22.486-9.315c5.964-5.96 9.315-14.050 9.315-22.482 0.004-44.028-13.051-87.068-37.51-123.678-24.459-36.606-59.223-65.141-99.9-81.987-40.674-16.85-85.433-21.257-128.614-12.669-43.181 8.591-82.845 29.795-113.975 60.928z" />
<glyph unicode="&#xe90c;" d="M624.354 359.703c-3.475-2.32-7.369-3.93-11.469-4.742-4.096-0.809-8.312-0.805-12.408 0.011-4.096 0.819-7.991 2.436-11.462 4.76-3.467 2.32-6.448 5.304-8.768 8.778-4.679 7.020-6.381 15.607-4.728 23.877 1.653 8.273 6.522 15.551 13.538 20.229l95.398 63.597c3.475 2.32 7.369 3.93 11.469 4.742 4.096 0.812 8.312 0.809 12.408-0.011s7.991-2.433 11.462-4.756c3.467-2.323 6.448-5.307 8.768-8.782 2.316-3.475 3.927-7.373 4.739-11.469s0.809-8.312-0.011-12.408c-0.816-4.096-2.433-7.991-4.756-11.462s-5.307-6.451-8.782-8.768l-95.398-63.597z" />
<glyph unicode="&#xe90d;" d="M792.025 372.009c4.682-7.020 6.384-15.607 4.732-23.877-1.653-8.273-6.522-15.551-13.538-20.229-7.016-4.682-15.607-6.384-23.877-4.732-8.273 1.653-15.547 6.522-20.229 13.538l-63.597 95.398c-2.316 3.475-3.93 7.373-4.739 11.469-0.812 4.096-0.809 8.312 0.007 12.408 1.653 8.273 6.522 15.547 13.538 20.229 7.020 4.682 15.607 6.381 23.877 4.732 8.273-1.653 15.551-6.522 20.229-13.542l63.597-95.394zM665.625 613.49c3.037-2.933 5.459-6.442 7.126-10.322s2.546-8.052 2.581-12.275c0.035-4.222-0.766-8.41-2.366-12.319-1.6-3.905-3.962-7.458-6.946-10.441-2.987-2.987-6.536-5.35-10.445-6.946-3.909-1.6-8.097-2.405-12.316-2.369-4.223 0.039-8.397 0.915-12.277 2.581-3.877 1.667-7.387 4.089-10.321 7.126-22.235 22.243-50.568 37.39-81.415 43.528-30.844 6.137-62.817 2.989-91.874-9.048s-53.891-32.421-71.362-58.572c-17.468-26.151-26.791-56.899-26.785-88.35 0-8.432-3.35-16.522-9.314-22.482-5.964-5.964-14.052-9.315-22.485-9.315s-16.522 3.351-22.485 9.315c-5.964 5.96-9.314 14.050-9.314 22.482-0.003 44.028 13.050 87.068 37.509 123.678 24.458 36.607 59.223 65.139 99.901 81.989 40.674 16.849 85.433 21.257 128.614 12.667s82.845-29.793 113.975-60.926z" />
<glyph unicode="&#xe90e;" d="M395.087 546.138c7.016 4.679 15.604 6.381 23.877 4.728 8.27-1.653 15.547-6.522 20.226-13.538 4.682-7.016 6.384-15.607 4.732-23.877-1.653-8.273-6.522-15.547-13.538-20.229l-95.43-63.597c-3.475-2.316-7.371-3.927-11.468-4.739s-8.313-0.809-12.409 0.007c-4.095 0.819-7.99 2.436-11.461 4.76s-6.45 5.307-8.768 8.782c-4.681 7.016-6.382 15.604-4.73 23.877 1.652 8.27 6.522 15.547 13.539 20.226l95.43 63.601z" />
<glyph unicode="&#xe90f;" d="M227.374 533.832c-2.318 3.475-3.928 7.373-4.74 11.469s-0.808 8.312 0.010 12.408c0.818 4.096 2.435 7.991 4.758 11.462s5.307 6.451 8.781 8.768c3.475 2.316 7.371 3.927 11.468 4.739s8.313 0.809 12.409-0.007c4.095-0.819 7.99-2.436 11.461-4.76s6.45-5.307 8.768-8.782l63.598-95.394c2.318-3.475 3.928-7.373 4.74-11.469s0.808-8.316-0.010-12.408c-0.818-4.096-2.435-7.991-4.758-11.462s-5.307-6.451-8.781-8.768c-3.475-2.32-7.371-3.93-11.468-4.742-4.097-0.809-8.313-0.805-12.409 0.011-4.095 0.819-7.99 2.436-11.461 4.756-3.471 2.323-6.45 5.307-8.768 8.782l-63.598 95.398z" />
<glyph unicode="&#xe910;" glyph-name="verify" d="M471.68 951.902l-348.444-146c-35.84-15.023-59.236-48.824-59.236-85.91v-220.644c0-260.55 191.147-504.198 448-563.347 256.851 59.149 448 302.797 448 563.347v220.644c0 37.087-23.398 70.888-59.238 85.91l-348.442 146c-25.387 10.797-55.253 10.797-80.64 0zM377.102 251.002l-128.924 121.592c-4.609 4.346-8.264 9.506-10.758 15.185s-3.778 11.765-3.778 17.912c0 6.147 1.284 12.233 3.778 17.912s6.15 10.838 10.758 15.185c4.609 4.346 10.079 7.794 16.101 10.146s12.475 3.563 18.992 3.563c6.518 0 12.971-1.211 18.993-3.563s11.492-5.8 16.1-10.146l94.080-88.258 292.695 276.040c4.608 4.346 10.080 7.794 16.102 10.147 6.016 2.352 12.474 3.563 18.989 3.563s12.973-1.211 18.995-3.563c6.022-2.353 11.488-5.8 16.096-10.147 4.614-4.346 8.269-9.506 10.758-15.185 2.496-5.679 3.782-11.765 3.782-17.912s-1.286-12.233-3.782-17.912c-2.49-5.679-6.144-10.839-10.758-15.185l-328.033-309.374c-4.605-4.352-10.076-7.802-16.097-10.157s-12.477-3.571-18.996-3.571c-6.52 0-12.975 1.216-18.996 3.571s-11.492 5.805-16.097 10.157z" />
<glyph unicode="&#xe911;" d="M1024 448c0 282.768-229.231 512-512 512s-512-229.232-512-512c0-255.552 187.232-467.371 432-505.779v357.777h-130v148.002h130v112.8c0 128.32 76.442 199.2 193.391 199.2 56.017 0 114.611-10 114.611-10v-126h-64.563c-63.603 0-83.439-39.468-83.439-79.96v-96.040h141.999l-22.699-148.002h-119.3v-357.777c244.766 38.409 432 250.223 432 505.779z" />
<glyph unicode="&#xe912;" d="M711.3 299.998l22.699 148.002h-141.999v96.040c0 40.496 19.836 79.96 83.439 79.96h64.563v126c0 0-58.594 10-114.615 10-116.945 0-193.387-70.88-193.387-199.2v-112.8h-130v-148.002h130v-357.777c26.466-4.147 53.214-6.229 80-6.221 26.786-0.009 53.534 2.074 80 6.221v357.777h119.3z" />
<glyph unicode="&#xe913;" glyph-name="location-outline" d="M512 874.669c-187.734 0-341.334-153.6-341.334-341.333 0-230.401 298.667-490.665 311.467-503.465 8.533-4.27 21.333-8.535 29.866-8.535 8.535 0 21.335 4.265 29.865 8.535 12.8 12.8 311.47 273.065 311.47 503.465 0 187.733-153.6 341.333-341.335 341.333zM512 119.47c-89.6 85.33-256 268.8-256 413.865 0 140.8 115.2 256 256 256s256-115.2 256-256c0-140.801-166.4-328.536-256-413.865zM512 704.002c-93.866 0-170.666-76.8-170.666-170.666s76.8-170.665 170.666-170.665c93.865 0 170.665 76.8 170.665 170.665s-76.8 170.666-170.665 170.666zM512 448.002c-46.934 0-85.334 38.4-85.334 85.334s38.4 85.333 85.334 85.333c46.935 0 85.335-38.4 85.335-85.333s-38.4-85.334-85.335-85.334z" />
<glyph unicode="&#xe914;" glyph-name="mail" d="M214.17 779.059c-12.010-0.745-23.118-2.239-33.959-4.464l1.549 0.266c-39.448-10.823-69.999-40.967-81.203-79.361l-0.205-0.818c-5.888-22.118-6.758-61.747-6.042-271.053 0.666-195.072 0.819-200.448 4.25-215.808 10.048-45.364 45.961-80.178 91.15-88.469l0.703-0.107c16.179-3.021 30.822-3.174 321.587-3.174 282.317 0 305.818 0.205 320.87 2.97 46.17 8.309 82.353 43.22 92.424 88.012l0.145 0.769c3.43 15.36 3.533 20.941 4.25 214.221 0.717 208.64-0.205 250.726-6.042 272.64-11.224 38.543-40.939 68.292-78.644 79.359l-0.818 0.206c-10.965 2.389-23.923 4.125-37.153 4.837l-0.633 0.027c-29.696 1.843-561.408 1.792-592.23-0.051zM806.298 711.014c-0.87-0.87-23.859-18.227-51.098-38.656-79.835-59.147-116.361-87.056-152.772-115.107l40.542 30.013c-106.086-81.050-111.667-84.685-130.816-84.634-13.722 0.051-20.582 2.97-41.882 17.715-17.408 12.032-245.555 183.91-250.931 188.979-3.277 3.123 3.123 3.226 292.608 3.226 173.978 0 295.322-0.666 294.349-1.536zM296.243 567.245c23.937-19.049 70.904-54.387 118.206-89.298l26.076-18.376c27.034-18.125 43.827-23.706 71.475-23.706 28.006 0 45.722 6.042 73.37 24.986 42.79 31.082 72.789 53.747 102.493 76.773l-10.333-7.704c106.598 81.152 180.685 136.55 182.733 136.55 1.075 0 1.536-75.878 1.229-223.181l-0.461-223.13-3.635-7.834c-1.997-4.301-6.554-10.752-10.086-14.285-4.114-3.926-8.816-7.287-13.949-9.929l-0.336-0.157-7.834-3.635h-626.381l-7.834 3.635c-10.636 5.316-19.056 13.735-24.231 24.063l-0.14 0.309-3.635 7.834-0.461 223.334c-0.358 182.528-0.051 223.181 1.741 222.515 1.229-0.461 60.621-44.902 131.994-98.765z" />
<glyph unicode="&#xe915;" glyph-name="phone-outline" d="M199.373 821.709c-31.824-3.689-59.316-19.754-77.949-43.18l-0.182-0.237c-23.091-29.133-28.877-52.531-24.576-99.021 11.307-120.412 50.923-229.668 112.070-323.628l-1.682 2.757c45.005-70.758 109.722-139.469 180.378-191.437 77.107-56.73 170.445-98.867 267.162-120.627 44.902-10.086 105.882-17.152 127.13-14.746 28.058 3.226 49.408 13.67 69.888 34.15 20.685 20.685 30.822 41.677 34.253 70.81 2.202 18.893 1.997 180.531-0.256 190.259-2.173 9.64-8.31 17.539-16.568 22.032l-0.174 0.087c-10.65 5.427-219.085 88.269-224.819 89.344-6.963 1.331-17.152-1.485-24.064-6.707-3.482-2.662-14.438-19.149-30.515-45.926-13.773-22.938-25.6-41.728-26.317-41.728-2.355 0-36.25 23.040-51.149 34.765-24.652 20.406-46.627 42.268-66.477 65.972l-0.646 0.793c-12.8 15.923-36.966 50.995-36.966 53.504 0 0.614 18.33 12.134 40.704 25.549 22.426 13.414 42.803 26.522 45.312 29.184 5.632 5.888 9.779 18.842 8.397 26.266-1.126 5.837-83.917 214.17-89.395 224.922-4.58 8.432-12.478 14.569-21.896 16.7l-0.222 0.042c-8.96 2.099-173.824 2.15-191.437 0.102zM394.086 673.69c17.92-44.8 32.563-82.227 32.512-83.2 0-0.922-17.408-12.032-38.656-24.678s-41.626-25.19-45.312-27.853c-7.856-6.108-12.937-15.464-13.209-26.017l-0.001-0.044c-0.102-15.616 32.41-70.554 67.123-113.408 20.683-23.716 42.229-45.263 65.154-65.269l0.792-0.677c42.24-34.15 97.741-67.174 113.050-67.174 8.914 0.307 16.985 3.685 23.241 9.102l-0.047-0.040c2.202 2.048 14.797 21.811 28.006 43.878 13.158 22.067 24.934 41.165 26.163 42.445 1.843 1.997 15.155-2.816 84.326-30.464l82.074-32.87-0.461-82.176c-0.461-80.333-0.563-82.278-4.147-88.934-2.048-3.789-6.656-9.779-10.24-13.414-13.978-13.926-26.778-16.691-61.44-13.107-122.3 13.067-232.101 58.027-323.456 126.308l1.715-1.226c-141.737 106.716-237.766 267.588-257.241 451.309l-0.244 2.835c-2.458 23.654-1.587 38.963 2.56 47.258 5.939 11.725 19.814 23.757 31.59 27.341 2.355 0.717 40.141 1.382 83.917 1.434l79.616 0.154 32.614-81.51z" />
<glyph unicode="&#xe916;" d="M1024 448c0 282.768-229.231 512-512 512s-512-229.232-512-512c0-255.552 187.232-467.371 432-505.779v357.777h-130v148.002h130v112.8c0 128.32 76.442 199.2 193.391 199.2 56.017 0 114.611-10 114.611-10v-126h-64.563c-63.603 0-83.439-39.468-83.439-79.96v-96.040h141.999l-22.699-148.002h-119.3v-357.777c244.766 38.409 432 250.223 432 505.779z" />
<glyph unicode="&#xe917;" d="M711.3 299.998l22.699 148.002h-141.999v96.040c0 40.496 19.836 79.96 83.439 79.96h64.563v126c0 0-58.594 10-114.615 10-116.945 0-193.387-70.88-193.387-199.2v-112.8h-130v-148.002h130v-357.777c26.466-4.147 53.214-6.229 80-6.221 26.786-0.009 53.534 2.074 80 6.221v357.777h119.3z" />
<glyph unicode="&#xe918;" horiz-adv-x="896" d="M663.932 591.284c65.344-47.121 145.399-74.847 231.859-74.847v167.829c-16.367-0.003-32.687 1.72-48.695 5.141v-132.107c-86.451 0-166.494 27.722-231.855 74.84v-342.495c0-171.337-137.69-310.221-307.522-310.221-63.369 0-122.271 19.324-171.198 52.471 55.844-57.6 133.721-93.333 219.877-93.333 169.849 0 307.538 138.884 307.538 310.225v342.495h-0.004zM724.002 760.604c-33.399 36.804-55.326 84.367-60.070 136.951v21.585h-46.144c11.614-66.832 51.238-123.929 106.214-158.536zM243.94 163.371c-18.658 24.678-28.744 54.869-28.698 85.914 0 78.357 62.977 141.897 140.676 141.897 14.478 0.009 28.87-2.236 42.672-6.647v171.582c-16.128 2.228-32.403 3.178-48.672 2.828v-133.552c-13.808 4.42-28.208 6.66-42.693 6.647-77.696 0-140.67-63.531-140.67-141.901 0-55.415 31.476-103.394 77.385-126.767z" />
<glyph unicode="&#xe919;" horiz-adv-x="896" d="M615.241 632.145c65.365-47.118 145.399-74.84 231.855-74.84v132.107c-48.256 10.371-90.978 35.808-123.098 71.193-54.98 34.611-94.596 91.708-106.21 158.536h-121.199v-670.343c-0.277-78.148-63.147-141.423-140.678-141.423-45.684 0-86.275 21.965-111.978 56-45.901 23.369-77.381 71.347-77.381 126.758 0 78.362 62.974 141.901 140.669 141.901 14.886 0 29.234-2.338 42.693-6.643v133.549c-166.853-3.478-301.039-141.003-301.039-310.146 0-84.433 33.414-160.977 87.649-216.905 48.928-33.139 107.825-52.471 171.198-52.471 169.837 0 307.523 138.897 307.523 310.229l-0.004 342.498z" />
<glyph unicode="&#xe91a;" horiz-adv-x="896" d="M847.1 689.417v35.713c-43.52-0.067-86.178 12.227-123.102 35.476 32.683-36.095 75.721-60.986 123.102-71.196zM617.788 919.146c-1.109 6.385-1.958 12.814-2.547 19.269v21.585h-167.351v-670.349c-0.265-78.144-63.134-141.419-140.669-141.419-21.981-0.034-43.66 5.154-63.289 15.138 25.704-34.031 66.294-55.991 111.978-55.991 77.528 0 140.402 63.27 140.675 141.419v670.345l121.203 0.004zM349.923 558.945v38.025c-13.984 1.929-28.082 2.895-42.196 2.889-169.854 0-307.54-138.889-307.54-310.208 0-107.409 54.112-202.069 136.342-257.754-54.234 55.927-87.649 132.471-87.649 216.905 0 169.135 134.183 306.665 301.043 310.143z" />
<glyph unicode="&#xe91b;" d="M930.368 531.562h-34.368v1.773h-384v-170.669h241.13c-35.178-99.347-129.706-170.666-241.13-170.666-141.376 0-256.001 114.624-256.001 256s114.625 256 256.001 256c65.258 0 124.627-24.619 169.834-64.832l120.682 120.683c-76.202 71.019-178.131 114.816-290.515 114.816-235.628 0-426.668-191.040-426.668-426.667s191.040-426.666 426.668-426.666c235.626 0 426.666 191.040 426.666 426.666 0 28.608-2.944 56.534-8.298 83.562z" />
<glyph unicode="&#xe91c;" d="M134.527 646.592l140.181-102.806c37.931 93.91 129.79 160.214 237.291 160.214 65.258 0 124.627-24.619 169.834-64.832l120.682 120.683c-76.202 71.019-178.131 114.816-290.515 114.816-163.885 0-306.006-92.523-377.473-228.075z" />
<glyph unicode="&#xe91d;" d="M512 21.334c110.208 0 210.346 42.176 286.058 110.762l-132.051 111.744c-44.278-33.674-98.381-51.885-154.006-51.84-110.976 0-205.205 70.762-240.704 169.514l-139.136-107.2c70.613-138.176 214.016-232.979 379.84-232.979z" />
<glyph unicode="&#xe91e;" d="M930.368 531.562h-34.368v1.773h-384v-170.669h241.13c-16.826-47.283-47.139-88.602-87.187-118.848l0.064 0.045 132.051-111.744c-9.344-8.493 140.608 102.547 140.608 315.882 0 28.608-2.944 56.534-8.298 83.562z" />
<glyph unicode="&#xe91f;" glyph-name="bar" horiz-adv-x="922" d="M76.8 704c0 11.316 4.046 22.168 11.247 30.17s16.969 12.497 27.153 12.497h691.2c10.185 0 19.951-4.495 27.153-12.497s11.247-18.854 11.247-30.17c0-11.316-4.045-22.168-11.247-30.17s-16.968-12.497-27.153-12.497h-691.2c-10.184 0-19.952 4.495-27.153 12.497s-11.247 18.854-11.247 30.17zM76.8 446.635c0 11.315 4.046 22.17 11.247 30.17s16.969 12.496 27.153 12.496h691.2c10.185 0 19.951-4.495 27.153-12.496s11.247-18.855 11.247-30.17c0-11.315-4.045-22.17-11.247-30.17s-16.968-12.496-27.153-12.496h-691.2c-10.184 0-19.952 4.495-27.153 12.496s-11.247 18.855-11.247 30.17zM115.2 231.892c-10.184 0-19.952-4.492-27.153-12.496-7.201-8.001-11.247-18.852-11.247-30.17 0-11.315 4.046-22.166 11.247-30.167 7.201-8.004 16.969-12.5 27.153-12.5h691.2c10.185 0 19.951 4.495 27.153 12.5 7.202 8.001 11.247 18.852 11.247 30.167 0 11.319-4.045 22.17-11.247 30.17-7.202 8.004-16.968 12.496-27.153 12.496h-691.2z" />
<glyph unicode="&#xe920;" glyph-name="ads" d="M197.803 787.541c-50.475-5.461-95.488-45.44-108.587-96.384-2.816-11.136-3.029-26.624-3.029-242.304 0-214.528 0.213-231.296 3.029-243.285 11.725-46.998 48.020-83.294 94.128-94.83l0.891-0.189c12.075-2.859 32.341-3.029 327.765-3.029s315.691 0.171 327.765 3.029c46.998 11.725 83.294 48.020 94.83 94.128l0.189 0.891c2.816 11.989 3.029 28.757 3.029 243.285 0 215.68-0.213 231.168-3.029 242.304-11.477 44.629-48.555 82.048-93.44 94.208-10.325 2.773-31.317 2.987-320.811 3.285-170.368 0.128-315.605-0.341-322.731-1.109zM828.587 700.8c7.893-3.584 18.901-15.104 22.357-23.381 2.005-4.821 2.389-41.344 2.347-229.803-0.043-213.291-0.171-224.384-3.157-230.912-4.67-9.398-12.105-16.834-21.232-21.381l-0.272-0.123c-6.571-2.987-20.267-3.115-316.629-3.115s-310.059 0.128-316.629 3.115c-9.398 4.67-16.834 12.105-21.381 21.232l-0.123 0.272c-2.987 6.528-3.115 17.621-3.157 230.912-0.043 248.96-0.939 230.315 11.563 243.371 3.456 3.627 9.387 8.021 13.141 9.771 6.571 3.029 18.261 3.157 316.587 3.157 296.021 0 310.059-0.128 316.587-3.115zM368.469 616.789c-50.176-5.12-95.531-45.355-108.544-96.299-2.731-10.752-3.029-21.547-3.072-110.037 0-108.373-0.213-105.941 10.88-118.272 7.721-8.367 18.741-13.589 30.982-13.589 17.137 0 31.883 10.236 38.458 24.928l0.107 0.267c2.176 5.12 3.115 13.397 3.712 32.853l0.768 26.027h84.48l0.768-26.027c0.597-19.456 1.536-27.733 3.712-32.853 6.681-14.959 21.428-25.195 38.565-25.195 12.241 0 23.261 5.222 30.956 13.561l0.026 0.029c11.093 12.331 10.88 9.899 10.837 118.272 0 88.277-0.299 99.328-3.029 110.037-10.476 37.72-35.944 68.15-69.414 85.023l-0.772 0.353c-20.267 9.728-44.117 13.483-69.419 10.923zM716.8 616.704c-15.573-2.859-29.312-17.152-32.427-33.664-0.939-5.077-1.707-28.544-1.707-52.224v-43.008l-9.813 1.408c-3.083 0.31-6.663 0.486-10.284 0.486-4.344 0-8.629-0.254-12.841-0.748l0.511 0.049c-24.982-2.682-46.936-13.909-63.253-30.655l-0.022-0.022c-34.731-34.603-41.045-86.741-15.701-129.579 9.045-15.275 26.88-31.317 43.904-39.381 21.632-10.325 27.307-11.136 75.179-11.179 49.152 0 53.803 0.939 65.365 13.44 11.947 13.013 11.435 5.803 11.435 157.227 0 150.869 0.64 141.653-10.965 154.88-7.683 8.495-18.746 13.809-31.050 13.809-2.949 0-5.827-0.305-8.603-0.886l0.272 0.048zM401.92 530.133c7.893-3.584 18.901-15.104 22.357-23.381 1.707-4.096 2.389-13.355 2.389-32.256v-26.496h-85.333v26.496c0 29.995 1.28 35.029 11.605 45.824 3.456 3.627 9.387 8.021 13.141 9.771 9.088 4.224 26.624 4.267 35.84 0.043zM672.085 403.029c7.893-4.352 10.539-11.051 10.581-26.283v-14.080h-13.739c-8.96 0-15.488 0.896-18.731 2.603-13.44 6.912-13.525 28.885-0.171 37.205 3.401 1.685 7.406 2.67 11.641 2.67 3.763 0 7.344-0.778 10.591-2.182l-0.173 0.067z" />
<glyph unicode="&#xe921;" glyph-name="contact" d="M472.491 865.237c-87.723-11.947-164.864-67.157-203.648-145.621-19.371-39.211-27.051-70.827-29.227-120.149l-1.195-26.88-30.037-0.043c-33.408 0-47.317-2.133-61.824-9.387-25.81-12.693-44.831-35.839-51.702-63.764l-0.138-0.663c-3.712-15.701-3.627-145.749 0.043-161.493 7.381-31.275 33.493-59.093 64.725-68.907 11.136-3.499 15.317-3.797 55.552-3.755 41.472 0.043 43.989 0.213 53.376 3.968 18.56 7.424 31.573 20.437 39.040 39.040l3.968 9.856 0.939 157.867c0.939 156.928 0.981 157.952 4.779 171.179 11.221 39.168 24.277 62.379 50.304 89.387 37.973 39.381 88.064 60.288 144.555 60.288s106.581-20.907 144.555-60.288c23.68-24.576 37.931-48.64 47.147-79.659 8.149-27.349 8.192-28.544 7.637-231.339l-0.512-191.232-6.272-12.757c-8.049-15.746-20.148-28.435-34.942-36.977l-10.583-5.647-5.675 10.709c-8.021 15.232-31.232 38.144-46.635 46.080-23.083 11.904-26.923 12.373-94.72 12.373-67.84 0-71.68-0.512-94.72-12.373-15.488-8.021-38.784-30.976-46.635-45.909-7.692-15.173-12.197-33.081-12.197-52.041 0-9.895 1.227-19.504 3.538-28.682l-0.172 0.808c10.112-39.595 45.013-71.723 86.059-79.232 5.888-1.067 32.725-1.835 64.128-1.835s58.24 0.768 64.128 1.835c24.71 4.913 45.946 17.343 61.784 34.767l0.082 0.092c9.045 9.899 19.669 27.221 21.675 35.243 0.981 3.968 2.944 5.12 15.872 9.131 49.778 15.826 87.972 54.85 102.34 104.040l0.273 1.091c2.688 9.813 6.315 35.072 6.869 47.787 0.043 0.597 15.616 1.451 34.603 2.005 28.459 0.768 36.565 1.536 45.781 4.48 30.379 9.6 56.533 37.675 63.829 68.608 3.669 15.744 3.755 145.792 0.043 161.493-7.009 28.588-26.030 51.734-51.274 64.174l-0.566 0.252c-14.507 7.253-28.416 9.387-61.824 9.387l-30.037 0.043-1.195 26.88c-2.176 49.536-10.069 81.792-29.397 120.32-30.213 59.32-80.024 105.027-140.735 129.239l-1.814 0.638c-39.893 15.787-94.080 21.845-139.947 15.573zM238.933 418.987v-81.92h-30.507c-28.331 0-30.805 0.256-34.987 3.584-9.557 7.467-9.6 7.808-9.6 77.824 0 61.355 0.171 64.768 3.413 70.059 6.741 11.093 11.136 12.373 43.093 12.373h28.587v-81.92zM847.787 497.493c3.578-2.398 6.562-5.382 8.887-8.845l0.073-0.115c3.243-5.291 3.413-8.704 3.413-70.059 0-70.016-0.043-70.357-9.6-77.824-4.181-3.328-6.656-3.584-34.987-3.584h-30.507v163.84h28.587c25.515 0 29.184-0.384 34.133-3.413zM572.587 171.733c28.075-12.715 28.416-53.589 0.555-67.456l-8.917-4.437h-104.448l-8.917 4.437c-12.44 6.314-20.816 19.012-20.816 33.666 0 9.435 3.472 18.058 9.208 24.663l-0.039-0.046c10.496 11.947 12.544 12.288 72.789 12.288 48.341 0 54.443-0.299 60.587-3.115z" />
<glyph unicode="&#xe922;" glyph-name="home" d="M460.8 846.933c14.771 11.078 32.738 17.067 51.2 17.067s36.429-5.989 51.2-17.067l298.667-224c10.598-7.948 19.2-18.255 25.126-30.104 5.922-11.849 9.007-24.915 9.007-38.162v-405.333c0-22.63-8.99-44.335-24.994-60.339s-37.709-24.994-60.339-24.994h-209.067c-12.446 0-24.384 4.945-33.186 13.747s-13.747 20.74-13.747 33.186v251.733c0 11.315-4.497 22.17-12.497 30.17s-18.854 12.497-30.17 12.497c-11.315 0-22.17-4.497-30.17-12.497s-12.497-18.854-12.497-30.17v-251.733c0-6.165-1.216-12.267-3.571-17.963-2.359-5.692-5.815-10.867-10.176-15.223-4.356-4.361-9.532-7.817-15.223-10.176-5.696-2.355-11.797-3.571-17.963-3.571h-209.067c-22.632 0-44.337 8.99-60.34 24.994s-24.994 37.709-24.994 60.339v405.333c0 13.248 3.084 26.313 9.009 38.162s14.526 22.156 25.124 30.104l298.667 224zM512 778.667l-298.667-224v-405.333h170.667v213.333c0 33.946 13.486 66.505 37.49 90.509s56.564 37.491 90.51 37.491c33.946 0 66.505-13.487 90.509-37.491s37.491-56.563 37.491-90.509v-213.333h170.667v405.333l-298.667 224z" />
<glyph unicode="&#xe923;" glyph-name="login" d="M494.933 830.165c-42.275-4.818-79.305-24.197-106.596-52.918l-0.070-0.074c-28.342-30.236-45.75-71.019-45.75-115.868 0-47.551 19.569-90.531 51.093-121.327l0.033-0.032c30.492-29.846 72.274-48.263 118.357-48.263s87.865 18.417 118.387 48.292l-0.030-0.029c65.963 64.043 68.352 169.813 5.376 237.227-26.197 28.075-66.859 48.939-101.803 52.224-22.016 2.091-24.789 2.133-38.997 0.768zM543.147 741.717c20.693-8.064 41.216-28.587 49.237-49.237 5.675-14.677 6.528-40.747 1.792-56.32-11.179-36.821-43.093-60.16-82.176-60.16-49.067 0-85.333 36.267-85.333 85.333 0 25.301 7.936 44.203 25.771 61.611 9.151 9.179 20.429 16.232 33.033 20.356l0.588 0.167c13.867 4.565 43.221 3.669 57.088-1.749zM323.413 403.627c-75.34-7.089-138.741-52.193-171.384-115.701l-0.563-1.205c-25.131-50.347-29.483-112-10.581-149.589 17.664-35.2 49.237-60.629 86.016-69.248 12.032-2.816 30.549-3.029 285.099-3.029s273.067 0.213 285.099 3.029c45.804 11.372 81.407 46.11 93.821 90.527l0.217 0.907c2.517 9.685 3.413 18.347 3.371 33.536 0.004 0.477 0.006 1.041 0.006 1.606 0 55.751-22.202 106.316-58.248 143.335l0.044-0.046c-31.317 32.725-66.56 52.437-112.256 62.72-16.512 3.755-17.877 3.755-200.96 4.139-101.376 0.171-191.232-0.256-199.68-0.981zM722.773 314.496c20.053-6.827 34.048-15.744 50.347-32.043 24.363-24.363 35.499-48.811 37.12-81.493 0.683-13.867 0.256-19.115-1.963-25.003-3.541-9.216-13.013-19.2-22.229-23.381-6.656-3.029-17.621-3.157-274.048-3.157s-267.392 0.128-274.048 3.157c-9.935 5.020-17.689 13.145-22.11 23.081l-0.119 0.3c-4.181 10.923-2.56 37.973 3.328 56.149 14.077 41.474 47.438 72.991 89.12 84.229l0.907 0.208c12.203 3.2 19.285 3.285 206.336 2.944l193.707-0.341 13.653-4.651z" />
<glyph unicode="&#xe924;" glyph-name="oclock" d="M512 64c-98.133 0-183.637 32.525-256.512 97.579s-114.659 146.304-125.355 243.755h87.467c9.955-73.954 42.851-135.113 98.688-183.467s121.075-72.533 195.712-72.533c83.2 0 153.783 28.971 211.755 86.912s86.942 128.525 86.912 211.755c0 83.2-28.971 153.771-86.912 211.712s-128.525 86.926-211.755 86.955c-49.067 0-94.933-11.378-137.6-34.133s-78.578-54.045-107.733-93.867h117.333v-85.333h-256v256h85.333v-100.267c36.267 45.511 80.541 80.711 132.821 105.6s107.563 37.333 165.845 37.333c53.333 0 103.296-10.141 149.888-30.421s87.125-47.645 121.6-82.091c34.475-34.503 61.854-75.037 82.133-121.6s30.409-96.525 30.379-149.888c0-53.333-10.125-103.296-30.379-149.888s-47.629-87.125-82.133-121.6c-34.505-34.475-75.038-61.854-121.6-82.133s-96.525-30.409-149.888-30.379zM631.467 268.8l-162.133 162.133v230.4h85.333v-196.267l136.533-136.533-59.733-59.733z" />
<glyph unicode="&#xe925;" glyph-name="partner" d="M868.847 568.922c45.935 45.936 24.99 99.588 0 125.679l-110.251 110.245c-46.306 45.935-99.597 24.989-125.687 0l-62.477-62.839h-95.181c-69.827 0-110.252-36.748-130.832-79.009l-163.171-163.162v-146.995l-26.093-25.724c-45.937-46.302-24.99-99.588 0-125.679l110.251-110.242c19.845-19.844 41.16-27.196 61.373-27.196 26.093 0 49.981 12.864 64.313 27.196l99.225 99.584h131.934c62.477 0 94.080 38.955 105.472 77.175 41.527 11.021 64.316 42.628 73.502 73.493 56.964 14.699 78.276 68.719 78.276 106.573v110.244h-21.679l11.025 10.657zM806.003 448.021c0-16.538-6.985-36.749-36.753-36.749h-36.749v-36.749c0-16.538-6.98-36.749-36.749-36.749h-36.753v-36.749c0-16.538-6.98-36.749-36.749-36.749h-162.069l-120.54-120.533c-11.392-10.658-18.007-4.412-22.050-0.367l-109.883 109.508c-10.658 11.392-4.41 18.010-0.367 22.050l47.408 47.774v146.991l73.501 73.498v-58.428c0-44.467 29.4-110.246 110.249-110.246 80.853 0 110.251 65.779 110.251 110.246h257.254v-36.749zM816.661 621.105l-62.477-62.839h-278.933v-73.495c0-16.538-6.985-36.749-36.753-36.749-29.766 0-36.749 20.211-36.749 36.749v110.243c0 16.904 6.247 73.497 73.502 73.497h125.316l83.793 83.786c11.392 10.657 18.005 4.41 22.050 0.367l109.884-109.51c10.654-11.392 4.407-18.007 0.367-22.049z" />
<glyph unicode="&#xe926;" glyph-name="ticket" d="M197.803 787.541c-50.475-5.461-95.659-45.568-108.544-96.384-2.645-10.496-3.029-20.949-3.029-88.704-0.043-84.992-0.085-84.821 10.837-96.939 7.509-8.32 16.469-12.501 30.080-13.952 16-1.707 23.765-5.291 32.341-14.805 8.576-9.557 11.179-16.64 11.136-30.464 0.001-0.108 0.002-0.236 0.002-0.364 0-11.072-4.521-21.089-11.817-28.305l-0.004-0.004c-8.107-8.107-13.867-10.539-31.189-13.099-17.579-2.645-26.069-7.339-34.133-18.859-7.808-11.179-8.533-20.437-7.723-98.901 0.683-66.261 0.981-72.704 4.309-84.779 12.735-45.307 48.353-80.019 93.274-91.246l0.891-0.189c12.075-2.859 32.341-3.029 327.765-3.029s315.691 0.171 327.765 3.029c45.803 11.433 81.414 46.137 93.945 90.523l0.22 0.912c3.328 12.075 3.627 18.517 4.309 84.779 0.811 78.464 0.085 87.723-7.723 98.901-8.064 11.52-16.555 16.213-34.133 18.859-17.323 2.56-23.083 4.992-31.189 13.099-8.192 8.192-11.776 17.451-11.776 30.379 0 13.909 3.712 22.443 13.867 31.787 8.448 7.723 14.251 10.069 29.568 11.733 13.653 1.536 22.571 5.675 30.080 13.995 10.923 12.117 10.88 11.947 10.837 96.939-0.043 67.541-0.427 78.251-3.072 88.704-11.179 44.459-48.469 82.048-93.355 94.208-10.325 2.773-31.317 2.987-320.811 3.285-170.368 0.128-315.605-0.341-322.731-1.109zM597.675 677.973c0.597-21.589 1.323-27.349 4.224-33.707 6.47-14.399 20.685-24.245 37.2-24.245 0.317 0 0.633 0.004 0.948 0.011l-0.047-0.001c16.981 0 31.104 8.96 38.101 24.235 2.901 6.357 3.627 12.117 4.224 33.707l0.768 26.027 69.333-0.043c78.464-0.043 77.227 0.171 89.557-13.525 11.264-12.501 11.349-12.971 11.307-70.443l-0.043-51.669-11.605-5.461c-33.152-15.573-61.269-49.963-69.461-85.035-4.011-16.981-3.669-45.824 0.725-62.507 9.557-36.565 38.827-70.528 72.747-84.48l7.68-3.157-0.043-52.053c-0.043-57.984-0.341-59.861-12.032-71.552-12.075-12.075-11.563-11.989-88.832-12.032l-69.333-0.043-0.725 26.027c-0.597 22.741-1.195 27.051-4.565 34.048-6.616 14.221-20.784 23.903-37.212 23.903-0.313 0-0.625-0.004-0.936-0.010l0.046 0.001c-0.159 0.002-0.346 0.004-0.533 0.004-11.938 0-22.653-5.232-29.979-13.528l-0.037-0.043c-9.216-10.496-10.624-15.872-11.477-44.373l-0.768-26.027-197.333 0.043c-187.435 0.043-197.675 0.171-204.203 3.157-9.398 4.67-16.834 12.105-21.381 21.232l-0.123 0.272c-2.816 6.187-3.115 12.203-3.157 58.923l-0.043 52.053 7.68 3.157c33.92 13.952 63.189 47.915 72.747 84.48 4.395 16.683 4.736 45.525 0.725 62.507-8.192 35.072-36.309 69.461-69.461 85.035l-11.605 5.461-0.043 51.669c-0.043 57.685 0.171 59.093 11.563 70.997 3.456 3.627 9.387 8.021 13.141 9.771 6.528 3.029 15.445 3.157 204.16 3.2l197.333 0.043 0.768-26.027zM631.467 531.371c-15.957-2.944-29.397-17.195-32.555-34.603-1.152-6.229-1.621-27.605-1.28-55.467 0.555-41.941 0.853-45.952 4.181-53.035 6.556-14.408 20.826-24.245 37.394-24.245 0.324 0 0.646 0.004 0.968 0.011l-0.048-0.001c12.373 0 22.784 4.565 30.805 13.483 10.453 11.605 10.88 14.379 10.88 71.339 0 56.363-0.128 57.216-10.965 69.547-7.683 8.495-18.746 13.809-31.050 13.809-2.949 0-5.827-0.305-8.603-0.886l0.272 0.048z" />
<glyph unicode="&#xe927;" glyph-name="info" horiz-adv-x="964" d="M0 448c0 127.803 50.77 250.372 141.14 340.742s212.939 141.14 340.742 141.14c127.801 0 250.374-50.769 340.745-141.14 90.365-90.37 141.137-212.939 141.137-340.742 0-127.801-50.772-250.374-141.137-340.745-90.371-90.365-212.944-141.137-340.745-141.137-127.803 0-250.372 50.772-340.742 141.137-90.371 90.371-141.14 212.944-141.14 340.745zM481.882 839.529c-103.84 0-203.427-41.25-276.853-114.677s-114.677-173.013-114.677-276.853c0-103.84 41.25-203.427 114.677-276.853s173.013-114.676 276.853-114.676c103.84 0 203.427 41.249 276.853 114.676s114.676 173.014 114.676 276.853c0 103.84-41.249 203.427-114.676 276.853s-173.013 114.677-276.853 114.677zM391.529 463.059c0 11.981 4.76 23.472 13.232 31.945s19.963 13.232 31.945 13.232h60.235c11.981 0 23.472-4.76 31.945-13.232s13.232-19.963 13.232-31.945v-165.647h15.059c11.981 0 23.472-4.759 31.945-13.234 8.472-8.469 13.232-19.962 13.232-31.943s-4.76-23.474-13.232-31.943c-8.472-8.475-19.963-13.234-31.945-13.234h-120.471c-11.981 0-23.472 4.759-31.945 13.234-8.472 8.469-13.232 19.962-13.232 31.943s4.76 23.474 13.232 31.943c8.472 8.475 19.963 13.234 31.945 13.234h15.059v120.471h-15.059c-11.981 0-23.472 4.76-31.945 13.232s-13.232 19.963-13.232 31.945zM481.882 568.471c-15.976 0-31.296 6.346-42.593 17.642s-17.642 26.617-17.642 42.593c0 15.976 6.346 31.296 17.642 42.593s26.617 17.642 42.593 17.642c15.976 0 31.296-6.346 42.593-17.642s17.642-26.617 17.642-42.593c0-15.976-6.346-31.296-17.642-42.593s-26.617-17.642-42.593-17.642z" />
<glyph unicode="&#xe928;" glyph-name="star-comment" horiz-adv-x="1138" d="M552.505 934.628c-10.24-3.3-23.268-12.8-28.729-20.821-2.389-3.527-28.615-59.108-58.311-123.506-60.537-139.309-80.252-180.972-100.143-222.535l41.263 95.73c-7.737-15.644-21.106-27.591-35.157-31.63-3.356-0.967-68.039-9.045-143.701-18.034-147.228-17.408-147.911-17.522-162.418-29.81-9.5-8.021-16.441-22.869-17.465-37.433-0.236-1.84-0.37-3.97-0.37-6.13 0-10.569 3.22-20.386 8.734-28.524l-0.114 0.179c2.446-3.812 49.095-48.242 103.652-98.759 54.556-50.46 102.229-95.289 105.984-99.669 7.623-8.932 13.028-23.495 13.028-35.157 0-4.324-11.947-67.584-26.567-140.572-17.863-89.543-26.51-136.761-26.51-145.18 0-21.333 12.971-40.391 33.906-49.778 11.833-5.291 30.322-5.291 42.155 0 4.836 2.162 60.188 32.711 123.051 67.925 7.661 5.85 47.87 28.376 88.335 50.493l34.602 17.318c11.776 5.177 30.492 5.177 42.268 0 4.779-2.105 60.075-32.597 122.88-67.755s118.158-65.707 123.051-67.925c25.657-11.492 58.14 1.081 71.339 27.591 8.135 16.327 7.452 21.618-21.788 167.367-29.070 144.498-29.412 147.115-20.821 164.864 4.779 9.785 13.084 17.863 134.599 130.332 92.103 85.276 90.169 82.887 90.169 109.568 0 14.336-0.626 17.294-5.575 26.283-5.732 11.009-15.031 19.499-26.338 24.056l-0.343 0.122c-8.021 3.641-30.322 6.77-147.115 20.594-75.719 8.988-140.402 17.067-143.701 18.034-15.701 4.494-27.591 16.156-37.774 37.035-4.039 8.363-31.061 66.56-60.018 129.308-56.889 123.449-57.458 124.359-76.459 133.575-7.132 3.009-15.423 4.757-24.123 4.757-5.495 0-10.827-0.697-15.913-2.009l0.441 0.096zM625.778 759.467c33.673-76.228 54.182-119.060 75.24-161.572l-13.971 31.183c14.45-24.633 39.822-43.975 66.844-50.972 6.201-1.593 69.689-9.785 141.141-18.148 71.452-8.42 132.324-15.872 135.282-16.668 5.177-1.365 1.479-5.006-91.989-91.193-53.532-49.38-101.717-94.891-107.122-101.148-19.342-22.585-28.274-48.868-26.567-78.336 0.569-10.923 10.297-63.886 26.795-146.716 14.222-71.339 25.486-130.105 24.974-130.56-0.512-0.512-51.996 27.591-114.347 62.521 25.489-11.594-14.731 11.094-55.080 33.579l-67.914 34.745c-14.616 7.478-31.884 11.86-50.176 11.86s-35.56-4.382-50.812-12.154l0.636 0.294c-5.234-2.674-60.587-33.394-122.994-68.324-62.35-34.93-113.835-63.033-114.347-62.578-0.455 0.512 10.752 59.278 24.974 130.617 16.441 82.432 26.169 135.851 26.795 146.716 0.159 2.191 0.25 4.746 0.25 7.323 0 26.77-9.783 51.254-25.969 70.074l0.119-0.142c-4.892 5.689-53.077 51.2-107.179 101.148-94.265 87.154-98.020 90.908-92.9 92.274 2.958 0.796 63.829 8.249 135.282 16.668 71.396 8.363 134.94 16.555 141.141 18.148 28.552 8.080 51.953 26.317 66.561 50.468l0.283 0.505c3.072 5.234 30.606 63.886 61.269 130.389 30.606 66.503 56.206 120.889 56.889 120.889s26.283-54.386 56.889-120.889z" />
<glyph unicode="&#xe929;" glyph-name="bus" horiz-adv-x="1536" d="M1251.84 960c32.119 0.005 63.812-7.214 92.629-21.098s53.973-34.063 73.54-58.974l8.098-11.127 74.701-109.563c20.036-29.367 31.966-63.299 34.637-98.504l0.555-15.154v-436.474c0.009-34.444-13.295-67.619-37.248-92.875s-56.789-40.728-91.913-43.313l-10.479-0.341h-11.87c-14.071-38.929-39.851-72.789-73.95-97.143-34.108-24.354-74.94-38.067-117.146-39.339-42.214-1.263-83.831 9.967-119.398 32.222-35.567 22.263-63.428 54.511-79.923 92.518l-4.753 11.742h-442.714c-14.089-38.903-39.869-72.747-73.963-97.084s-74.913-38.042-117.107-39.305c-42.195-1.271-83.797 9.95-119.357 32.196-35.56 22.238-63.419 54.468-79.927 92.45l-4.748 11.742h-11.869c-35.228-0.009-69.159 13.005-94.991 36.422-25.831 23.42-41.654 55.521-44.296 89.868l-0.349 10.24v546.104c-0.003 52.236 20.41 102.498 57.061 140.504s86.771 60.88 140.106 63.945l12.288 0.341h1042.385zM1186.91 209.106c-18.517 0-36.275-7.192-49.374-19.994-13.090-12.803-20.446-30.165-20.446-48.27s7.356-35.465 20.446-48.273c13.099-12.8 30.857-19.994 49.374-19.994s36.275 7.194 49.365 19.994c13.099 12.809 20.454 30.169 20.454 48.273s-7.356 35.467-20.454 48.27c-13.090 12.802-30.848 19.994-49.365 19.994zM349.091 209.106c-18.517 0-36.275-7.192-49.369-19.994s-20.449-30.165-20.449-48.27c0-18.104 7.356-35.465 20.449-48.273 13.094-12.8 30.851-19.994 49.369-19.994s36.275 7.194 49.369 19.994c13.094 12.809 20.449 30.169 20.449 48.273s-7.356 35.467-20.449 48.27c-13.094 12.802-30.852 19.994-49.369 19.994zM1251.84 823.473h-64.93v-273.052h209.451v95.159c0.009 13.484-4.079 26.668-11.725 37.886l-74.709 109.63c-6.374 9.347-15.010 17.009-25.148 22.308-10.129 5.299-21.444 8.071-32.939 8.069zM349.091 823.473h-139.636c-17.101-0.002-33.607-6.141-46.385-17.251s-20.943-26.42-22.944-43.025l-0.489-7.987v-136.526h209.455v204.789zM698.182 823.473h-209.455v-204.789h209.455v204.789zM1047.27 823.473h-209.452v-204.789h209.452v204.789z" />
<glyph unicode="&#xe92a;" glyph-name="star-solid" horiz-adv-x="1138" d="M517.23 904.88c20.333 44.082 82.982 44.082 103.319 0l111.559-241.859c8.283-17.966 25.31-30.336 44.959-32.666l264.494-31.36c48.208-5.716 67.567-65.3 31.926-98.26l-195.55-180.837c-14.524-13.431-21.026-33.451-17.169-52.855l51.905-261.239c9.461-47.616-41.222-84.44-83.581-60.729l-232.42 130.094c-17.26 9.665-38.307 9.665-55.571 0l-232.414-130.094c-42.36-23.711-93.046 13.113-83.585 60.729l51.908 261.239c3.856 19.405-2.648 39.424-17.173 52.855l-195.548 180.837c-35.641 32.96-16.281 92.544 31.927 98.26l264.495 31.36c19.647 2.33 36.673 14.7 44.96 32.666l111.559 241.859z" />
<glyph unicode="&#xe92b;" glyph-name="bank-card" horiz-adv-x="996" d="M111.561 805.459c-24.078-4.733-44.502-23.331-52.584-47.851-2.768-8.441-2.934-25.821-2.685-310.576 0.304-327.182-0.221-308.778 9.161-324.636 4.926-8.303 17.768-20.729 26.679-25.766 15.222-8.662-0.249-8.358 406.030-8.358s390.808-0.304 406.030 8.358c8.912 5.037 21.753 17.463 26.679 25.766 9.382 15.858 8.856-2.546 9.161 324.636 0.249 284.755 0.083 302.135-2.685 310.576-8.303 25.185-28.478 43.119-53.885 47.962-10.932 2.076-761.358 1.965-771.902-0.111zM881.885 748.143l4.013-4.29v-101.846h-775.472v101.846l4.013 4.29 4.041 4.29h759.365l4.041-4.29zM886.729 371.449c0-144.688-0.554-216.424-1.716-219.468-1.052-2.636-2.604-4.873-4.555-6.687l-0.011-0.010c-4.207-3.21-760.362-3.21-764.568 0-1.962 1.824-3.515 4.061-4.523 6.575l-0.043 0.123c-1.162 3.044-1.716 74.78-1.716 219.468v214.929h777.133v-214.929zM553.181 307.906c-2.159-0.443-7.14-4.013-11.070-7.943-5.618-5.618-7.417-8.801-8.33-14.862-0.156-1.076-0.245-2.319-0.245-3.583 0-10.188 5.795-19.022 14.268-23.388l0.147-0.069 7.389-3.902 201.285 0.941 6.282 4.788c6.66 4.904 10.934 12.715 10.934 21.524 0 9.352-4.817 17.579-12.105 22.335l-0.102 0.063-6.67 4.428-98.941 0.221c-54.41 0.111-100.684-0.138-102.843-0.554z" />
<glyph unicode="&#xe92c;" glyph-name="star-thin" d="M512 960l138.289-373.714 373.711-138.286-373.711-138.289-138.289-373.711-138.286 373.711-373.714 138.289 373.714 138.286 138.286 373.714z" />
<glyph unicode="&#xe92d;" glyph-name="warning" horiz-adv-x="964" d="M60.235 478.118c0-232.876 188.771-421.647 421.647-421.647s421.647 188.771 421.647 421.647c0 232.876-188.771 421.647-421.647 421.647s-421.647-188.771-421.647-421.647zM481.882 435.953c-11.183 0-21.908 4.442-29.815 12.35s-12.35 18.632-12.35 29.815v168.659c0 11.183 4.442 21.908 12.35 29.815s18.632 12.35 29.815 12.35c11.183 0 21.908-4.442 29.815-12.35s12.35-18.632 12.35-29.815v-168.659c0-11.183-4.442-21.908-12.35-29.815s-18.632-12.35-29.815-12.35zM418.635 309.459c0 16.776 6.663 32.858 18.525 44.725 11.861 11.859 27.948 18.522 44.722 18.522h0.422c16.774 0 32.861-6.663 44.722-18.522 11.862-11.866 18.525-27.949 18.525-44.725v-0.422c0-16.776-6.663-32.858-18.525-44.725-11.861-11.86-27.948-18.522-44.722-18.522h-0.422c-16.774 0-32.861 6.662-44.722 18.522-11.862 11.866-18.525 27.949-18.525 44.725v0.422z" />
<glyph unicode="&#xe92e;" glyph-name="location" d="M581.632 53.82c104.99 92.401 291.78 281.178 291.78 454.415 0 95.852-38.075 187.779-105.858 255.557-67.777 67.778-159.702 105.855-255.554 105.855s-187.779-38.077-255.557-105.855c-67.778-67.778-105.855-159.704-105.855-255.557 0-173.237 186.729-362.014 291.78-454.415 19.161-17.101 43.948-26.558 69.632-26.558s50.471 9.457 69.632 26.558zM391.529 508.235c0 31.951 12.692 62.593 35.285 85.185s53.235 35.285 85.185 35.285c31.951 0 62.593-12.692 85.185-35.285 22.594-22.592 35.285-53.235 35.285-85.185s-12.692-62.593-35.285-85.185c-22.592-22.593-53.235-35.285-85.185-35.285s-62.593 12.692-85.185 35.285c-22.593 22.592-35.285 53.235-35.285 85.185z" />
<glyph unicode="&#xe92f;" glyph-name="payment" d="M469.547 874.667l311.381-97.28c8.684-2.711 16.276-8.127 21.663-15.458s8.292-16.191 8.289-25.289v-75.307h85.333c11.315 0 22.17-4.494 30.171-12.496s12.496-18.856 12.496-30.171v-85.333h-554.667v85.333c0 11.315 4.494 22.17 12.496 30.171s18.856 12.496 30.171 12.496h298.667v43.947l-256 80.043-256-80.043v-315.904c-0.006-26.121 5.984-51.897 17.509-75.338s28.277-43.927 48.966-59.873l8.064-5.803 181.461-123.733 161.365 110.037h-204.032c-11.315 0-22.17 4.494-30.171 12.496s-12.496 18.856-12.496 30.171v170.667h554.667v-170.667c0-11.315-4.494-22.17-12.496-30.171s-18.856-12.496-30.171-12.496l-137.387-0.043c-16.512-21.76-36.565-40.96-59.733-56.747l-229.547-156.544-229.547 156.501c-34.452 23.489-62.645 55.040-82.127 91.907s-29.664 77.935-29.659 119.634v347.264c0.005 9.091 2.914 17.942 8.301 25.264s12.973 12.731 21.651 15.44l311.381 97.323z" />
<glyph unicode="&#xe930;" horiz-adv-x="1045" d="M181.333 960h682.667c94.257 0 170.667-76.41 170.667-170.667v-682.667c0-94.257-76.41-170.667-170.667-170.667h-682.667c-94.257 0-170.667 76.41-170.667 170.667v682.667c0 94.257 76.41 170.667 170.667 170.667z" />
<glyph unicode="&#xe931;" horiz-adv-x="1045" d="M192 298.667c0 5.658 2.323 11.085 6.457 15.085s9.741 6.249 15.587 6.249h88.179c5.845 0 11.454-2.249 15.586-6.249 4.134-4 6.458-9.427 6.458-15.085v-85.333c0-5.658-2.323-11.085-6.458-15.085-4.132-4-9.741-6.249-15.586-6.249h-88.179c-5.846 0-11.453 2.249-15.587 6.249s-6.457 9.427-6.457 15.085v85.333zM368.356 426.667c0 5.658 2.321 11.085 6.455 15.085s9.741 6.249 15.588 6.249h88.177c5.847 0 11.454-2.249 15.588-6.249s6.458-9.427 6.458-15.085v-213.333c0-5.658-2.323-11.085-6.458-15.085s-9.741-6.249-15.588-6.249h-88.177c-5.847 0-11.454 2.249-15.588 6.249s-6.455 9.427-6.455 15.085v213.333zM544.71 554.667c0 5.658 2.323 11.085 6.458 15.085s9.741 6.249 15.588 6.249h88.177c5.847 0 11.454-2.249 15.588-6.249s6.455-9.427 6.455-15.085v-341.333c0-5.658-2.321-11.085-6.455-15.085s-9.741-6.249-15.588-6.249h-88.177c-5.847 0-11.454 2.249-15.588 6.249s-6.458 9.427-6.458 15.085v341.333zM721.067 682.667c0 5.658 2.323 11.085 6.458 15.085 4.132 4 9.741 6.249 15.586 6.249h88.179c5.845 0 11.454-2.249 15.586-6.249 4.134-4 6.458-9.427 6.458-15.085v-469.333c0-5.658-2.323-11.085-6.458-15.085-4.132-4-9.741-6.249-15.586-6.249h-88.179c-5.845 0-11.454 2.249-15.586 6.249-4.134 4-6.458 9.427-6.458 15.085v469.333z" />
<glyph unicode="&#xe932;" d="M170.667 960h682.667c94.257 0 170.667-76.41 170.667-170.667v-682.667c0-94.257-76.41-170.667-170.667-170.667h-682.667c-94.257 0-170.667 76.41-170.667 170.667v682.667c0 94.257 76.41 170.667 170.667 170.667z" />
<glyph unicode="&#xe933;" d="M413.009 424.107c0-7.241-2.878-14.187-7.998-19.309-5.12-5.12-12.066-7.998-19.309-7.998s-14.187 2.878-19.309 7.998c-5.12 5.122-7.998 12.068-7.998 19.309 0 7.243 2.878 14.189 7.998 19.309 5.122 5.122 12.066 7.998 19.309 7.998s14.189-2.876 19.309-7.998c5.12-5.12 7.998-12.066 7.998-19.309z" />
<glyph unicode="&#xe934;" d="M334.507 704c-20.821 0-40.789-8.271-55.514-22.993-14.722-14.724-22.993-34.692-22.993-55.514v-293.547c0-20.821 8.271-40.789 22.993-55.514 14.724-14.722 34.692-22.993 55.514-22.993h293.547c20.821 0 40.789 8.271 55.514 22.993 14.722 14.724 22.993 34.692 22.993 55.514v293.547c0 20.821-8.271 40.789-22.993 55.514-14.724 14.722-34.692 22.993-55.514 22.993h-293.547zM447.147 424.107c0-16.294-6.473-31.923-17.995-43.445s-27.151-17.995-43.445-17.995c-16.294 0-31.923 6.473-43.445 17.995s-17.995 27.151-17.995 43.445c0 16.294 6.473 31.923 17.995 43.445s27.151 17.995 43.445 17.995c16.294 0 31.923-6.473 43.445-17.995s17.995-27.151 17.995-43.445zM324.267 564.053c0 9.421 7.646 17.067 17.067 17.067h279.893c4.527 0 8.868-1.798 12.068-4.998s4.998-7.541 4.998-12.068c0-4.527-1.798-8.868-4.998-12.068s-7.541-4.998-12.068-4.998h-279.893c-9.421 0-17.067 7.646-17.067 17.067zM491.52 437.76h129.707c4.527 0 8.868-1.798 12.068-4.998s4.998-7.541 4.998-12.068c0-4.527-1.798-8.868-4.998-12.068s-7.541-4.998-12.068-4.998h-129.707c-4.527 0-8.868 1.798-12.068 4.998s-4.998 7.541-4.998 12.068c0 4.527 1.798 8.868 4.998 12.068s7.541 4.998 12.068 4.998z" />
<glyph unicode="&#xe935;" d="M395.938 192.004c-12.77-0.009-25.35 3.1-36.646 9.058-11.294 5.958-20.964 14.586-28.166 25.129 1.12-0.041 2.238-0.053 3.373-0.053h293.547c28.062 0 54.976 11.149 74.82 30.991 19.844 19.844 30.993 46.758 30.993 74.822v293.547c0 1.12-0.028 2.253-0.055 3.373 10.545-7.204 19.17-16.873 25.129-28.169s9.069-23.874 9.060-36.644v-232.107c0-77.278-62.669-139.947-139.947-139.947h-232.107z" />
<glyph unicode="&#xe936;" d="M1022.477 409.029c-21.606-281.669-267.782-493.119-549.45-471.512-281.67 21.613-493.116 267.782-471.508 549.454s267.779 493.118 549.449 471.51c282.44-21.608 493.115-267.781 471.508-549.452z" />
<glyph unicode="&#xe937;" d="M300.188 474.621l158.971-260.835 384.304 581.863-364.24-387.394-179.035 66.366z" />
<glyph unicode="&#xe938;" glyph-name="route-outline" d="M810.667 312.32v349.013c0 94.293-76.373 170.667-170.667 170.667s-170.667-76.373-170.667-170.667v-426.667c0-46.933-38.4-85.333-85.333-85.333s-85.333 38.4-85.333 85.333v349.013c49.493 17.92 85.333 64.853 85.333 120.32 0 70.827-57.173 128-128 128s-128-57.173-128-128c0-55.467 35.84-102.4 85.333-120.32v-349.013c0-94.293 76.373-170.667 170.667-170.667s170.667 76.373 170.667 170.667v426.667c0 46.933 38.4 85.333 85.333 85.333s85.333-38.4 85.333-85.333v-349.013c-28.416-10.065-52.356-29.854-67.597-55.859-15.245-26.010-20.804-56.567-15.697-86.276 5.103-29.713 20.544-56.661 43.593-76.092s52.224-30.089 82.368-30.093c70.827 0 128 57.173 128 128 0 55.467-35.84 102.4-85.333 120.32zM256 661.333c-23.467 0-42.667 19.2-42.667 42.667s19.2 42.667 42.667 42.667c23.467 0 42.667-19.2 42.667-42.667s-19.2-42.667-42.667-42.667zM768 149.333c-23.467 0-42.667 19.2-42.667 42.667s19.2 42.667 42.667 42.667c23.467 0 42.667-19.2 42.667-42.667s-19.2-42.667-42.667-42.667z" />
<glyph unicode="&#xe939;" glyph-name="time-outline" d="M216.533 448h124.8c7.822 0 15.289-1.963 22.4-5.888s12.445-9.783 16-17.579l46.933-93.867 132.267 264.533c7.821 16.355 20.621 24.533 38.4 24.533s30.579-8.178 38.4-24.533l73.6-147.2h98.133c-10.667 72.533-43.733 133.333-99.2 182.4s-120.887 73.6-196.267 73.6c-75.379 0-140.8-24.533-196.267-73.6s-88.533-109.867-99.2-182.4zM512 106.667c75.379 0 140.8 24.533 196.267 73.6s88.533 109.867 99.2 182.4h-124.8c-7.821 0-15.287 1.95-22.4 5.845s-12.446 9.771-16 17.621l-46.933 93.867-132.267-264.533c-7.821-16.354-20.621-24.533-38.4-24.533s-30.578 8.179-38.4 24.533l-73.6 147.2h-98.133c10.667-72.533 43.733-133.333 99.2-182.4s120.887-73.6 196.267-73.6zM512 21.333c-52.621 0-102.215 10.125-148.779 30.379s-87.282 47.817-122.155 82.688c-34.845 34.846-62.393 75.563-82.645 122.155s-30.393 96.183-30.421 148.779h85.333c0-82.487 29.155-152.887 87.467-211.2s128.713-87.467 211.2-87.467c82.487 0 152.887 29.154 211.2 87.467s87.467 128.713 87.467 211.2h85.333c0-52.621-10.125-102.229-30.379-148.821s-47.817-87.296-82.688-122.112c-34.846-34.846-75.563-62.409-122.155-82.688s-96.183-30.409-148.779-30.379zM128 405.333c0 52.621 10.141 102.229 30.421 148.821s47.829 87.296 82.645 122.112c34.845 34.845 75.563 62.393 122.155 82.645s96.183 30.393 148.779 30.421c44.087 0 86.4-7.111 126.933-21.333s78.579-34.845 114.133-61.867l59.733 59.733 59.733-59.733-59.733-59.733c27.021-35.555 47.646-73.6 61.867-114.133s21.333-82.846 21.333-126.933h-85.333c0 82.487-29.154 152.889-87.467 211.2s-128.713 87.467-211.2 87.467c-82.487 0-152.889-29.155-211.2-87.467s-87.467-128.713-87.467-211.2h-85.333zM384 832v85.333h256v-85.333h-256zM512 106.667c-82.487 0-152.889 29.154-211.2 87.467s-87.467 128.713-87.467 211.2c0 82.487 29.155 152.889 87.467 211.2s128.713 87.467 211.2 87.467c82.487 0 152.887-29.155 211.2-87.467s87.467-128.713 87.467-211.2c0-82.487-29.154-152.887-87.467-211.2s-128.713-87.467-211.2-87.467z" />
<glyph unicode="&#xe93a;" glyph-name="wallet-money" d="M462.208 872.021c-19.859-3.375-37.654-9.364-54.065-17.688l1.073 0.493c-6.315-3.2-47.061-29.44-90.496-58.411-43.435-28.928-80.64-53.504-82.688-54.571-2.005-1.109-11.989-3.584-22.144-5.547-66.261-12.8-111.915-43.605-138.453-93.483-26.112-49.067-32.725-105.259-32.725-278.443-0.043-124.075 3.072-181.504 12.032-222.848 17.877-82.645 66.261-131.627 148.309-150.187 46.037-10.453 96-12.629 287.616-12.629 189.013 0 239.531 2.133 285.227 12.032 80.213 17.365 128.64 63.445 148.395 141.056 3.669 14.464 7.509 37.931 10.112 62.123 0.853 7.808 1.749 9.899 5.035 11.392 7.851 3.584 26.027 22.443 31.488 32.683 9.941 18.645 10.368 23.808 10.368 124.672s-0.427 106.027-10.368 124.672c-5.461 10.24-23.637 29.099-31.488 32.683-3.285 1.493-4.181 3.584-5.035 11.392-6.315 57.472-15.531 90.325-33.792 120.448-27.307 45.141-70.144 72.277-133.163 84.437-10.155 1.963-20.139 4.437-22.144 5.547-2.048 1.067-39.253 25.643-82.688 54.571-43.435 28.971-84.352 55.339-90.837 58.624-23.653 12.115-51.6 19.215-81.206 19.215-10.013 0-19.837-0.812-29.408-2.374l1.046 0.141zM510.635 787.413c13.611-2.859 27.179-9.685 51.712-25.984l22.187-14.72h-187.733l22.187 14.72c24.149 16.043 36.352 22.315 49.493 25.515 11.008 2.688 30.635 2.901 42.155 0.469zM688.64 659.584c109.312-5.931 143.232-27.989 156.928-102.101 1.451-7.851 2.645-16.512 2.645-19.2v-4.949h-38.827c-58.539 0-81.877-4.011-114.176-19.669-53.931-26.069-89.216-75.051-96.299-133.717-4.437-36.651 5.888-77.824 27.477-109.44 28.416-41.6 76.501-70.187 128.811-76.629 8.448-1.024 32.853-1.877 54.187-1.877h38.827v-4.949c0-2.688-1.195-11.349-2.645-19.2-13.696-74.112-47.616-96.171-156.928-102.101-42.112-2.261-353.835-2.261-395.947 0-128.811 6.955-155.989 34.133-162.944 162.944-2.261 41.984-2.261 225.963 0 267.947 6.912 127.531 34.773 156.117 158.891 162.859 37.376 2.005 362.667 2.091 400 0.085zM243.584 573.568c-25.259-9.088-36.864-36.011-25.344-58.624 4.181-8.192 11.136-15.104 19.797-19.755 6.784-3.627 7.893-3.669 103.296-3.669s96.512 0.043 103.296 3.669c15.659 8.405 23.723 21.376 23.723 38.144s-8.064 29.739-23.723 38.144c-6.784 3.627-8.32 3.669-100.736 4.053-75.819 0.299-95.104-0.085-100.309-1.963zM896 362.667v-85.333l-65.28 0.043c-50.048 0-67.968 0.597-76.8 2.475-27.983 6.62-50.795 24.778-63.534 49.051l-0.252 0.528c-6.528 13.269-6.613 13.653-6.613 33.237 0 19.541 0.085 19.968 6.613 33.195 8.448 17.067 22.869 31.787 39.936 40.747 20.011 10.496 25.515 11.093 99.797 11.264l66.133 0.128v-85.333zM754.048 402.731c-15.573-4.992-28.715-23.339-28.715-40.064 0-24.235 23.595-45.269 47.189-42.027 35.115 4.779 49.877 46.891 25.131 71.68-7.9 7.662-18.689 12.385-30.581 12.385-4.649 0-9.13-0.722-13.336-2.060l0.311 0.085z" />
<glyph unicode="&#xe93b;" glyph-name="award" d="M465.878 415.997l46.080 34.987 45.653-34.56c16.64-12.374 39.254 3.413 33.28 23.466l-17.92 58.027 51.2 40.533c15.787 11.947 6.827 37.547-13.653 37.547h-59.733l-18.347 57.173c-1.403 4.268-4.118 7.985-7.757 10.619s-8.017 4.053-12.51 4.053c-4.493 0-8.87-1.418-12.51-4.053s-6.353-6.351-7.756-10.619l-18.774-57.173h-60.16c-20.053 0-29.013-25.6-13.226-37.973l50.773-40.534-17.92-58.026c-5.973-20.054 16.64-35.84 33.28-23.467zM255.958 37.971c0-29.011 28.587-49.491 56.32-40.531l199.68 66.56 199.677-66.56c6.432-2.195 13.286-2.816 20.006-1.818s13.101 3.59 18.611 7.558c5.51 3.968 9.99 9.197 13.075 15.245 3.078 6.054 4.666 12.755 4.627 19.546v270.080c55.021 62.143 85.376 142.282 85.338 225.279 0 188.587-152.749 341.334-341.334 341.334-188.587 0-341.333-152.747-341.333-341.334 0-86.613 32.426-165.12 85.333-225.279v-270.080zM511.958 789.331c141.226 0 255.997-114.773 255.997-256s-114.771-255.999-255.997-255.999c-141.227 0-256 114.773-256 255.999s114.773 256 256 256z" />
<glyph unicode="&#xe93c;" glyph-name="bling" d="M349.725 330.884c9.999-7.123 21.974-10.941 34.25-10.935 12.276 0.013 24.243 3.858 34.23 10.999 10.033 7.405 17.631 17.632 21.824 29.376l22.208 68.288c5.318 16.093 14.326 30.719 26.306 42.71s26.598 21.012 42.686 26.346l69.504 22.592c11.656 4.18 21.703 11.919 28.722 22.12s10.653 22.351 10.393 34.732c-0.262 12.38-4.408 24.365-11.852 34.261s-17.809 17.203-29.631 20.887l-68.416 22.144c-16.1 5.318-30.735 14.326-42.736 26.305s-21.036 26.596-26.384 42.687l-22.592 69.376c-4.076 11.472-11.619 21.393-21.583 28.388s-21.858 10.717-34.033 10.652c-12.342 0.052-24.389-3.775-34.438-10.941s-17.592-17.309-21.562-28.995l-22.784-69.76c-5.35-15.613-14.163-29.815-25.778-41.541s-25.732-20.673-41.294-26.171l-69.376-22.464c-11.59-4.096-21.613-11.706-28.674-21.768s-10.806-22.077-10.714-34.369c0.092-12.292 4.015-24.249 11.224-34.205s17.345-17.415 28.995-21.338l68.288-22.208c16.118-5.396 30.759-14.467 42.767-26.497s21.052-26.688 26.417-42.815l22.528-69.12c4.032-11.52 11.584-21.568 21.568-28.672zM674.272 73.606c8.685-6.144 19.053-9.453 29.696-9.472 10.739 0.134 21.171 3.59 29.869 9.894 8.698 6.298 15.232 15.142 18.707 25.306l15.872 48.768c3.334 10.157 9.011 19.386 16.57 26.944s16.794 13.235 26.95 16.576l49.408 16.128c10.214 3.501 19.066 10.15 25.28 18.989 6.208 8.838 9.466 19.411 9.306 30.214-0.166 10.803-3.738 21.274-10.214 29.92s-15.526 15.027-25.843 18.221l-48.896 15.933c-10.118 3.369-19.322 9.042-26.874 16.572s-13.248 16.712-16.646 26.82l-16.128 49.536c-3.475 10.173-10.054 18.996-18.822 25.219-8.762 6.223-19.264 9.53-30.010 9.452s-21.197-3.537-29.875-9.885c-8.672-6.349-15.123-15.267-18.445-25.489l-15.811-48.768c-3.274-10.019-8.809-19.15-16.179-26.685s-16.374-13.274-26.317-16.771l-49.664-16.189c-7.517-2.618-14.323-6.944-19.874-12.653-5.552-5.702-9.697-12.621-12.108-20.205s-3.020-15.629-1.779-23.488c1.241-7.866 4.298-15.328 8.928-21.798 6.336-8.96 15.296-15.68 25.6-19.2l48.832-15.808c10.156-3.398 19.378-9.12 26.933-16.71 7.555-7.584 13.235-16.832 16.587-27.002l16.195-49.536c3.501-10.016 10.035-18.694 18.688-24.832z" />
<glyph unicode="&#xe93d;" glyph-name="diamon" d="M792.621 896h-264.621l168.378-224.52 96.243 224.52zM231.38 896l96.24-224.52 168.38 224.52h-264.62zM512 810.66l-128-170.66h256l-128 170.66zM845.901 857.88l-93.382-217.88h223.482l-130.099 217.88zM178.1 857.88l-132.1-217.88h225.48l-93.38 217.88zM293.36 576h-245.36l445.6-576h1.060l-201.3 576zM730.643 576l-201.303-576h1.060l445.6 576h-245.357zM658.778 576h-293.558l146.78-416 146.778 416z" />
<glyph unicode="&#xe93e;" glyph-name="king" d="M213.333 277.338l-85.333 469.332 234.667-213.334 149.333 256 149.331-256 234.669 213.334-85.331-469.332h-597.336zM810.669 149.338c0-25.6-17.069-42.669-42.669-42.669h-512c-25.6 0-42.667 17.069-42.667 42.669v42.662h597.336v-42.662z" />
<glyph unicode="&#xe93f;" horiz-adv-x="1365" d="M1335.044 800.285c-7.829 30.87-23.104 59.014-44.301 81.628-21.193 22.614-47.573 38.91-76.51 47.265-105.929 30.822-532.267 30.822-532.267 30.822s-426.36-0.933-532.291-31.755c-28.936-8.355-55.315-24.652-76.511-47.267s-36.469-50.76-44.298-81.632c-32.042-200.806-44.471-506.789 0.88-699.561 7.83-30.874 23.103-59.017 44.299-81.63s47.575-38.912 76.509-47.266c105.932-30.822 532.282-30.822 532.282-30.822s426.342 0 532.267 30.822c28.937 8.354 55.317 24.653 76.514 47.266s36.471 50.756 44.301 81.63c33.796 201.088 44.211 506.884-0.875 700.5z" />
<glyph unicode="&#xe940;" horiz-adv-x="1365" d="M537.749 231.484l375.787 218.556-375.787 218.554v-437.11z" />
<glyph unicode="&#xe941;" horiz-adv-x="1061" d="M530.286 960c282.77 0 512-229.23 512-512s-229.23-512-512-512c-282.77 0-512 229.23-512 512s229.23 512 512 512z" />
<glyph unicode="&#xe942;" horiz-adv-x="1061" d="M366.413 286.789c-3.147 3.035-5.656 6.671-7.382 10.69s-2.635 8.338-2.673 12.712c-0.038 4.374 0.795 8.711 2.451 12.756 1.656 4.048 4.101 7.728 7.194 10.818 3.094 3.094 6.769 5.537 10.818 7.194s8.386 2.491 12.756 2.454c4.374-0.040 8.697-0.947 12.712-2.673 4.019-1.726 7.654-4.235 10.693-7.38 23.029-23.036 52.374-38.725 84.323-45.082 31.945-6.356 65.061-3.098 95.155 9.37s55.815 33.576 73.911 60.665c18.092 27.085 27.747 58.928 27.739 91.502 0 8.737 3.471 17.112 9.648 23.289s14.555 9.648 23.289 9.648c8.733 0 17.112-3.471 23.289-9.648s9.648-14.552 9.648-23.289c0.004-45.597-13.517-90.174-38.85-128.091-25.333-37.914-61.338-67.467-103.468-84.919-42.127-17.448-88.485-22.016-133.208-13.118s-85.804 30.859-118.045 63.104z" />
<glyph unicode="&#xe943;" horiz-adv-x="1061" d="M646.663 356.539c-3.599-2.399-7.632-4.067-11.878-4.908-4.242-0.841-8.609-0.837-12.851 0.011-4.242 0.845-8.276 2.52-11.867 4.926-3.595 2.406-6.682 5.497-9.084 9.095-4.846 7.267-6.608 16.161-4.897 24.73 1.712 8.565 6.755 16.102 14.021 20.952l98.805 65.869c3.599 2.399 7.632 4.067 11.878 4.908 4.242 0.841 8.609 0.837 12.851-0.007 4.242-0.848 8.276-2.523 11.871-4.93 3.591-2.406 6.678-5.497 9.081-9.095 2.399-3.599 4.067-7.632 4.908-11.875 0.841-4.246 0.837-8.613-0.011-12.855-0.845-4.242-2.52-8.272-4.926-11.867s-5.497-6.682-9.095-9.081l-98.805-65.872z" />
<glyph unicode="&#xe944;" glyph-name="phone-fill" horiz-adv-x="960" d="M112.941 960h225.882l112.941-301.176-141.176-90.353c60.477-130.803 159.725-236.667 282.353-301.174l84.703 150.586 282.355-120.468v-240.941c0-31.955-11.898-62.598-33.082-85.19-21.178-22.592-49.907-35.283-79.859-35.283-220.277 14.278-428.039 114.054-584.085 280.506-156.047 166.449-249.588 388.062-262.974 623.024 0 31.951 11.899 62.593 33.080 85.185s49.908 35.285 79.862 35.285z" />
<glyph unicode="&#xe945;" horiz-adv-x="1061" d="M820.326 369.287c4.846-7.267 6.608-16.161 4.897-24.73-1.708-8.565-6.755-16.102-14.021-20.948-7.267-4.849-16.161-6.612-24.73-4.901-8.565 1.712-16.102 6.755-20.952 14.021l-65.869 98.805c-2.399 3.599-4.067 7.636-4.908 11.878s-0.837 8.609 0.011 12.851c1.708 8.569 6.755 16.102 14.021 20.952 7.267 4.846 16.161 6.608 24.73 4.897 8.565-1.708 16.102-6.755 20.952-14.021l65.869-98.805zM689.408 619.396c3.149-3.038 5.658-6.672 7.384-10.691s2.633-8.34 2.67-12.713c0.040-4.372-0.794-8.71-2.45-12.758s-4.1-7.724-7.194-10.818c-3.090-3.090-6.769-5.537-10.818-7.194-4.045-1.653-8.382-2.487-12.756-2.45s-8.697 0.947-12.712 2.673c-4.019 1.726-7.654 4.235-10.69 7.38-23.033 23.036-52.378 38.725-84.323 45.082-31.949 6.356-65.064 3.095-95.159-9.371s-55.815-33.578-73.907-60.663c-18.096-27.085-27.75-58.931-27.744-91.505 0-8.733-3.47-17.112-9.646-23.289s-14.554-9.644-23.288-9.644c-8.735 0-17.112 3.467-23.289 9.644s-9.646 14.555-9.646 23.289c-0.003 45.601 13.516 90.178 38.848 128.091 25.332 37.917 61.341 67.469 103.468 84.92 42.13 17.45 88.485 22.016 133.208 13.119s85.804-30.857 118.045-63.102z" />
<glyph unicode="&#xe946;" horiz-adv-x="1061" d="M409.194 549.643c7.267 4.846 16.161 6.608 24.73 4.897 8.565-1.712 16.102-6.755 20.952-14.021 4.846-7.267 6.608-16.165 4.897-24.73-1.708-8.569-6.755-16.102-14.021-20.952l-98.836-65.869c-3.599-2.399-7.635-4.067-11.878-4.908s-8.61-0.837-12.852 0.007c-4.242 0.848-8.275 2.523-11.87 4.93s-6.68 5.497-9.081 9.095c-4.848 7.267-6.61 16.161-4.899 24.73 1.711 8.565 6.755 16.102 14.022 20.948l98.838 65.872z" />
<glyph unicode="&#xe947;" horiz-adv-x="1061" d="M235.501 536.891c-2.4 3.599-4.069 7.632-4.909 11.875-0.841 4.246-0.837 8.613 0.010 12.855s2.521 8.276 4.927 11.867c2.406 3.595 5.496 6.682 9.095 9.081 3.598 2.403 7.634 4.070 11.877 4.912s8.61 0.837 12.852-0.011c4.242-0.848 8.275-2.52 11.87-4.926s6.681-5.497 9.081-9.095l65.87-98.805c2.401-3.599 4.069-7.632 4.909-11.878 0.84-4.242 0.837-8.609-0.010-12.851s-2.522-8.276-4.928-11.871c-2.406-3.595-5.496-6.678-9.095-9.081-3.599-2.399-7.635-4.067-11.878-4.908s-8.61-0.837-12.852 0.011c-4.242 0.845-8.275 2.52-11.87 4.926s-6.681 5.497-9.081 9.095l-65.87 98.805z" />
<glyph unicode="&#xe948;" glyph-name="coin" horiz-adv-x="964" d="M481.882 809.412c92.923 0 178.941-16.384 243.272-44.534 32.081-14.055 60.597-31.804 81.595-53.57 19.48-20.078 33.937-45.297 36.226-74.531l0.319-8.072v-401.571c0-32.684-15.3-60.633-36.545-82.601-20.998-21.763-49.513-39.514-81.595-53.567-64.331-28.112-150.349-44.538-243.272-44.538s-178.939 16.384-243.27 44.538c-32.085 14.053-60.597 31.804-81.598 53.567-19.476 20.076-33.933 45.297-36.222 74.529l-0.321 8.072v401.571c0 32.688 15.3 60.637 36.543 82.602 21.002 21.765 49.513 39.514 81.598 53.57 64.331 28.109 150.347 44.534 243.27 44.534zM762.982 311.188c-12.174-7.294-24.811-13.788-37.828-19.438-64.331-28.112-150.349-44.532-243.272-44.532s-178.939 16.384-243.27 44.532c-13.019 5.65-25.655 12.143-37.828 19.438v-84.052c0-6.102 2.65-15.095 13.975-26.781 11.485-11.89 30.038-24.419 56.059-35.822 51.963-22.727 126.534-37.786 211.064-37.786s159.099 15.059 211.064 37.786c26.022 11.403 44.574 23.931 56.061 35.822 11.324 11.643 13.975 20.679 13.975 26.781v84.052zM762.982 511.97c-12.174-7.294-24.811-13.786-37.828-19.436-64.331-28.109-150.349-44.534-243.272-44.534s-178.939 16.384-243.27 44.534c-13.019 5.649-25.655 12.142-37.828 19.436v-84.048c0-6.104 2.65-15.099 13.975-26.785 11.485-11.886 30.038-24.415 56.059-35.82 51.963-22.729 126.534-37.787 211.064-37.787s159.099 15.059 211.064 37.787c26.022 11.405 44.574 23.934 56.061 35.82 11.324 11.645 13.975 20.681 13.975 26.785v84.048zM481.882 729.098c-84.53 0-159.101-15.059-211.064-37.788-26.022-11.404-44.574-23.933-56.059-35.82-11.324-11.646-13.975-20.681-13.975-26.785s2.65-15.099 13.975-26.785c11.485-11.886 30.038-24.415 56.059-35.82 51.963-22.729 126.534-37.788 211.064-37.788s159.099 15.059 211.064 37.788c26.022 11.404 44.574 23.933 56.061 35.82 11.324 11.646 13.975 20.681 13.975 26.785s-2.65 15.099-13.975 26.785c-11.487 11.886-30.039 24.415-56.061 35.82-51.965 22.729-126.534 37.788-211.064 37.788z" />
<glyph unicode="&#xe949;" d="M789.34 106.665h-554.665l-128-128v725.335c0 70.4 57.6 128 128 128h554.665c70.4 0 128-57.6 128-128v-469.335c0-70.4-57.6-128-128-128z" />
<glyph unicode="&#xe94a;" d="M469.325 533.3h85.335v-234.666h-85.335v234.666z" />
<glyph unicode="&#xe94b;" d="M511.992 597.317c23.565 0 42.668 19.103 42.668 42.666s-19.103 42.667-42.668 42.667c-23.564 0-42.667-19.103-42.667-42.667s19.103-42.666 42.667-42.666z" />
<glyph unicode="&#xe94c;" glyph-name="arrow-up" horiz-adv-x="887" d="M443.725 960l-443.725-282.376v-195.491l443.725 282.376v195.491zM443.742 960l443.739-282.376v-195.491l-443.739 282.376v195.491zM443.725 686.933l-443.725-282.376v-195.491l443.725 282.376v195.491zM443.742 686.933l443.739-282.376v-195.491l-443.739 282.376v195.491zM443.725 413.867l-443.725-282.378v-195.488l443.725 282.378v195.488zM443.742 413.867l443.739-282.378v-195.488l-443.739 282.378v195.488z" />
<glyph unicode="&#xe94d;" glyph-name="sort" horiz-adv-x="964" d="M681.562 877.96c-4.355-0.9-8.202-2.21-11.817-3.928l0.312 0.134c-2.65-1.325-34.334-30.419-70.415-64.572-109.568-103.725-104.809-98.424-104.87-117.097-0.008-0.285-0.012-0.621-0.012-0.958 0-21.191 17.179-38.37 38.37-38.37 6.239 0 12.13 1.489 17.337 4.131l-0.219-0.101c5.24 2.65 23.251 18.552 52.887 46.682l44.996 42.707 0.783-204.499c0.904-219.256 0.361-205.704 8.734-217.148 6.177-6.887 14.383-11.839 23.674-13.918l0.3-0.056c1.86-0.303 4.004-0.477 6.189-0.477 14.596 0 27.386 7.737 34.49 19.334l0.101 0.177 4.457 7.59 0.783 204.619 0.783 204.68 44.634-42.466c27.708-26.263 47.706-44.032 52.766-46.803 24.998-13.493 55.959 5 56.32 33.732 0.016 0.415 0.025 0.902 0.025 1.391 0 9.333-3.307 17.895-8.812 24.576l0.053-0.066c-1.988 2.349-39.334 38.129-82.944 79.511-54.814 52.043-81.318 76.137-85.896 78.065-4.683 2.401-10.216 3.809-16.078 3.809-2.453 0-4.848-0.246-7.162-0.716l0.23 0.039zM266.36 583.469c-13.615-3.462-24.296-13.505-28.59-26.459l-0.082-0.285c-0.964-3.433-1.566-80.535-1.566-206.667 0-110.712-0.422-201.246-0.904-201.246-0.542 0-21.444 19.516-46.502 43.309s-47.947 44.514-50.778 45.96c-5.255 2.297-11.379 3.634-17.814 3.634-4.623 0-9.085-0.69-13.288-1.972l0.322 0.085c-15.074-6.331-25.48-20.947-25.54-38.001v-0.008c0-12.529 3.614-19.576 16.384-32.105 32.045-31.383 151.793-144.023 156.612-147.275 5.884-3.632 13.016-5.784 20.65-5.784 7.594 0 14.69 2.129 20.725 5.823l-0.174-0.099c4.578 2.831 133.843 124.205 160.888 151.070 7.542 7.026 12.244 17.015 12.244 28.101 0 0.391-0.006 0.781-0.017 1.17l0.001-0.057c0.024 0.482 0.037 1.046 0.037 1.614 0 11.104-5.162 21.002-13.218 27.425l-0.071 0.055c-6.735 6.318-15.821 10.199-25.814 10.199-5.41 0-10.555-1.138-15.207-3.186l0.242 0.095c-7.59-4.641-14.164-9.816-20.066-15.669l0.008 0.007-79.209-75.174-0.783 204.017c-0.602 154.202-1.325 205.041-2.771 208.294-4.819 8.758-11.817 15.795-20.278 20.526l-0.262 0.135c-4.612 2.349-10.058 3.725-15.825 3.725-3.328 0-6.549-0.458-9.603-1.315l0.25 0.060z" />
<glyph unicode="&#xe94e;" glyph-name="close" horiz-adv-x="964" d="M164.563 754.598c-9.578-5.414-16.998-13.689-21.203-23.653l-0.12-0.321c-1.12-3.54-1.766-7.612-1.766-11.834 0-5.712 1.181-11.147 3.313-16.076l-0.101 0.263c2.47-5.542 31.563-35.539 127.217-131.313l124.024-124.085-123.904-124.085c-68.126-68.247-125.229-126.615-126.856-129.687-3.976-7.529-4.096-27.588-0.241-34.756 3.976-7.349 12.228-15.059 19.697-18.432 4.776-1.864 10.306-2.945 16.087-2.945 6.074 0 11.869 1.192 17.164 3.355l-0.303-0.11c5.542 2.53 35.599 31.624 130.952 126.856l123.663 123.603 123.663-123.844c84.45-84.57 125.711-124.808 130.108-126.856 5.037-1.924 10.862-3.038 16.948-3.038 6.024 0 11.794 1.092 17.121 3.088l-0.337-0.111c8.6 4.356 15.329 11.357 19.23 19.919l0.106 0.259c1.651 4.492 2.606 9.679 2.606 15.090 0 5.953-1.156 11.635-3.256 16.836l0.108-0.302c-2.409 5.24-34.153 37.888-126.976 130.59l-123.723 123.603 123.784 124.386c95.895 96.437 124.446 126.012 126.916 131.614 6.445 14.517 2.831 33.973-8.192 44.333-11.746 11.023-31.142 14.216-44.333 7.288-3.915-1.988-55.657-52.465-130.53-127.277l-124.085-123.964-124.868 124.868c-87.642 87.582-126.675 125.53-130.831 127.277-4.407 1.494-9.483 2.356-14.76 2.356-5.859 0-11.469-1.063-16.649-3.006l0.327 0.108z" />
<glyph unicode="&#xe94f;" glyph-name="history" d="M512 64c-98.133 0-183.637 32.525-256.512 97.579s-114.659 146.304-125.355 243.755h87.467c9.955-73.954 42.851-135.113 98.688-183.467s121.075-72.533 195.712-72.533c83.2 0 153.783 28.971 211.755 86.912s86.942 128.525 86.912 211.755c0 83.2-28.971 153.771-86.912 211.712s-128.525 86.926-211.755 86.955c-49.067 0-94.933-11.378-137.6-34.133s-78.578-54.045-107.733-93.867h117.333v-85.333h-256v256h85.333v-100.267c36.267 45.511 80.541 80.711 132.821 105.6s107.563 37.333 165.845 37.333c53.333 0 103.296-10.141 149.888-30.421s87.125-47.645 121.6-82.091c34.475-34.503 61.854-75.037 82.133-121.6s30.409-96.525 30.379-149.888c0-53.333-10.125-103.296-30.379-149.888s-47.629-87.125-82.133-121.6c-34.505-34.475-75.038-61.854-121.6-82.133s-96.525-30.409-149.888-30.379zM631.467 268.8l-162.133 162.133v230.4h85.333v-196.267l136.533-136.533-59.733-59.733z" />
<glyph unicode="&#xe950;" glyph-name="dollars" horiz-adv-x="964" d="M682.647 795.782c61.048-35.245 111.742-85.939 146.986-146.986s53.796-130.295 53.796-200.785c0-70.491-18.552-139.739-53.802-200.788-35.244-61.042-85.938-111.736-146.986-146.98-61.042-35.244-130.294-53.802-200.784-53.796-70.49 0-139.739 18.552-200.785 53.802-61.046 35.244-111.738 85.938-146.982 146.986s-53.797 130.298-53.796 200.788l0.201 13.011c2.249 69.351 22.43 136.937 58.575 196.166s87.020 108.084 147.667 141.798c60.646 33.715 128.994 51.139 198.38 50.575s137.44-19.097 197.531-53.793zM481.862 688.965c-10.65 0-20.864-4.231-28.395-11.762s-11.762-17.745-11.762-28.395c-31.951 0-62.593-12.692-85.186-35.285s-35.285-53.235-35.285-85.185c0-31.951 12.692-62.593 35.285-85.185s53.235-35.285 85.186-35.285v-80.314c-6.658-0.355-13.302 0.916-19.361 3.698s-11.348 6.999-15.415 12.282l-2.73 4.060c-5.494 8.861-14.219 15.235-24.33 17.779s-20.814 1.056-29.847-4.149c-9.033-5.203-15.688-13.72-18.558-23.744s-1.728-20.769 3.183-29.967c10.25-17.775 24.87-32.635 42.474-43.177s37.61-16.414 58.119-17.059h6.466c-0.008-9.842 3.598-19.342 10.135-26.702s15.549-12.059 25.324-13.21l4.698-0.283c10.651 0 20.865 4.229 28.396 11.764 7.531 7.529 11.762 17.745 11.762 28.395l7.067 0.199c31.307 1.807 60.674 15.758 81.862 38.876 21.191 23.112 32.527 53.585 31.605 84.929-0.922 31.345-14.029 61.097-36.533 82.932-22.508 21.835-52.643 34.034-84.002 34.003v80.314c14.376 0.482 26.945-5.622 34.776-15.983l2.731-4.056c5.494-8.861 14.219-15.237 24.33-17.781s20.816-1.057 29.845 4.149c9.035 5.205 15.691 13.719 18.558 23.742s1.729 20.769-3.18 29.966c-10.246 17.784-24.865 32.655-42.469 43.204s-37.613 16.426-58.126 17.072h-6.465c0 10.65-4.231 20.864-11.762 28.395s-17.745 11.762-28.396 11.762zM522.020 407.867c10.65 0 20.864-4.231 28.396-11.762s11.762-17.745 11.762-28.396c0-10.647-4.231-20.863-11.762-28.393-7.531-7.535-17.745-11.764-28.396-11.764v80.314zM441.706 568.495v-80.314c-10.65 0-20.864 4.231-28.396 11.762s-11.762 17.745-11.762 28.395c0 10.65 4.231 20.864 11.762 28.395s17.745 11.762 28.396 11.762z" />
<glyph unicode="&#xe951;" glyph-name="gps" d="M511.854 906.625c8.487 0 16.627-3.371 22.627-9.373s9.373-14.141 9.373-22.627v-54.699c87.631-7.554 169.784-45.798 231.973-107.992 62.195-62.194 100.442-144.345 107.994-231.976h54.701c8.486 0 16.627-3.372 22.624-9.373 6.003-6.001 9.376-14.14 9.376-22.627s-3.373-16.627-9.376-22.627c-5.997-6.001-14.138-9.373-22.624-9.373h-54.701c-7.552-87.631-45.798-169.782-107.994-231.978-62.189-62.195-144.342-100.435-231.973-107.994v-54.694c0-8.486-3.372-16.627-9.373-22.63-6.001-5.997-14.14-9.37-22.627-9.37s-16.626 3.373-22.627 9.37c-6.001 6.003-9.373 14.144-9.373 22.63v54.694c-87.631 7.558-169.782 45.798-231.976 107.994s-100.438 144.347-107.992 231.978h-54.699c-8.486 0-16.626 3.372-22.627 9.373s-9.373 14.14-9.373 22.627c0 8.487 3.371 16.626 9.373 22.627s14.141 9.373 22.627 9.373h54.699c7.554 87.631 45.798 169.782 107.992 231.976s144.345 100.438 231.976 107.992v54.699c0 8.486 3.372 16.626 9.373 22.627s14.14 9.373 22.627 9.373zM511.854 757.292c-40.622 0-80.847-8.001-118.377-23.546s-71.631-38.331-100.355-67.055c-28.724-28.724-51.51-62.825-67.055-100.355s-23.546-77.755-23.546-118.377c0-40.622 8.001-80.847 23.546-118.377s38.331-71.629 67.055-100.353c28.724-28.723 62.825-51.514 100.355-67.059s77.755-23.546 118.377-23.546c82.040 0 160.722 32.589 218.732 90.605 58.010 58.010 90.605 136.689 90.605 218.73s-32.595 160.721-90.605 218.732c-58.010 58.012-136.691 90.602-218.732 90.602zM511.854 543.958c-25.46 0-49.878-10.115-67.882-28.118s-28.118-42.422-28.118-67.882c0-25.461 10.115-49.879 28.118-67.882s42.422-28.118 67.882-28.118c25.461 0 49.879 10.114 67.882 28.118s28.118 42.421 28.118 67.882c0 25.46-10.114 49.878-28.118 67.882s-42.421 28.118-67.882 28.118zM351.854 447.958c0 42.435 16.857 83.132 46.863 113.137s70.703 46.863 113.137 46.863c42.435 0 83.132-16.857 113.137-46.863s46.861-70.703 46.861-113.137-16.858-83.132-46.861-113.137c-30.006-30.008-70.703-46.866-113.137-46.866s-83.132 16.858-113.137 46.866c-30.006 30.006-46.863 70.703-46.863 113.137z" />
<glyph unicode="&#xe953;" glyph-name="oclock-fill" horiz-adv-x="964" d="M481.862 849.588c221.788 0 401.566-179.782 401.566-401.568 0-221.788-179.778-401.566-401.566-401.566-221.786 0-401.568 179.778-401.568 401.566 0 221.786 179.782 401.568 401.568 401.568zM481.862 688.961c-10.65 0-20.864-4.231-28.395-11.762s-11.762-17.745-11.762-28.395v-200.784c0.002-10.65 4.235-20.862 11.766-28.391l120.471-120.47c7.574-7.313 17.718-11.36 28.247-11.27s20.602 4.313 28.047 11.758 11.668 17.516 11.758 28.046c0.090 10.529-3.957 20.673-11.27 28.25l-108.704 108.702v184.159c0 10.65-4.231 20.864-11.762 28.395s-17.745 11.762-28.396 11.762z" />
<glyph unicode="&#xe955;" glyph-name="seat" horiz-adv-x="964" d="M139.25 257.476c19.878 38.472 61.842 64.253 112.6 57.868 53.674-6.53 106.911-16.27 159.422-29.154 80.715-20.161 151.432-58.91 203.718-94.292l17.667-12.288 16.065-11.842 14.372-11.083 12.613-10.204 10.722-9.071 8.83-7.71c33.852-30.16 10.842-79.432-27.503-83.046l-4.5-0.199h-345.108c-67.544 0-123.683 33.931-164.804 85.371-31.081 38.834-33.732 87.66-14.055 125.651h-0.040zM762.964 849.588c35.864 0 51.32-33.732 58.91-64.652l2.409-10.762 0.964-5.14c5.783-32.005 8.879-73.969 10.12-117.097 2.409-85.334-2.488-184.802-13.131-232.709-18.552-83.608-45.779-141.711-78.384-176.732-33.172-35.738-77.987-51.838-119.308-31.16-31.681 15.824-50.595 53.447-60.956 85.534-15.121 46.767-14.882 97.141 0.682 143.761 8.433 25.379 23.612 45.859 40.317 65.335l14.577 16.504c17.751 19.878 35.539 39.755 47.664 63.97 17.673 35.338 22.492 74.009 23.974 112.841l0.566 23.291 0.361 22.488 0.241 5.542 0.801 11.244c3.813 43.289 18.631 87.742 70.192 87.742z" />
<glyph unicode="&#xe957;" glyph-name="wifi" d="M512 96c35.346 0 64 28.653 64 64s-28.654 64-64 64c-35.346 0-64-28.653-64-64s28.654-64 64-64zM335 344.558l45.247-45.217c35.463 33.77 82.541 52.63 131.511 52.683s96.088-18.702 131.627-52.395l45.216 45.217c-47.526 45.709-110.925 71.214-176.866 71.155s-129.291-25.647-176.735-71.442zM199.375 480.23l45.248-45.216c71.422 69.821 167.318 108.941 267.199 109.001s195.826-38.945 267.327-108.681l45.216 45.216c-83.488 81.752-195.708 127.509-312.559 127.45s-229.022-45.932-312.431-127.77zM960 616.279c-119.392 117.724-280.326 183.721-448 183.721-167.672 0-328.605-65.997-448-183.721v-0.736l44.928-44.928c107.338 105.902 252.044 165.304 402.83 165.364 150.789 0.060 295.538-59.228 402.962-165.044l45.28 45.28v0.064z" />
</font>
</defs>
</svg>
